<svg width="813" height="813" viewBox="0 0 813 813" fill="none" xmlns="http://www.w3.org/2000/svg">
<path d="M635.766 120.893C591.279 77.2513 520.125 60.5685 463.41 86.2918C408.906 111.04 372.549 169.429 314.631 184.584C288.761 191.348 261.314 188.551 235.038 193.543C175.738 204.811 128.519 257.77 117.966 317.2C107.414 376.63 122.665 443.166 165.267 485.93C207.868 528.694 304.647 573.181 377.151 555.848L469.345 552.092C630.449 525.442 672.286 414.207 689.424 294.517C689.505 293.883 689.587 293.265 689.684 292.647C698.318 231.006 680.091 164.519 635.766 120.893Z" fill="#EBEBEB"/>
<path d="M280.257 143.527C288.599 139.95 296.517 134.194 300.111 125.852C304.794 114.861 300.582 101.462 292.062 93.0722C270.599 71.9342 233.526 77.4138 224.827 108.259C215.656 140.421 256.501 153.706 280.257 143.527Z" fill="#EBEBEB"/>
<path d="M738.968 776.35C738.968 776.578 587.474 776.773 400.646 776.773C213.819 776.773 62.2758 776.578 62.2758 776.35C62.2758 776.122 213.738 775.927 400.646 775.927C587.555 775.927 738.968 776.106 738.968 776.35Z" fill="#263238"/>
<path d="M611.604 479.003H540.32V563.75H611.604V479.003Z" fill="#F5F5F5"/>
<path d="M542.775 473.491H220.616V569.1H542.775V473.491Z" fill="#606C38"/>
<path d="M613.766 481.524H534.092V473.491H613.766C614.294 473.489 614.817 473.591 615.306 473.793C615.794 473.994 616.238 474.289 616.611 474.663C616.984 475.036 617.28 475.48 617.481 475.968C617.682 476.456 617.785 476.979 617.782 477.507C617.782 478.573 617.359 479.594 616.606 480.347C615.853 481.101 614.831 481.524 613.766 481.524Z" fill="#606C38"/>
<path d="M613.766 569.1H534.092V561.068H613.766C614.831 561.068 615.853 561.491 616.606 562.244C617.359 562.997 617.782 564.019 617.782 565.084C617.785 565.612 617.682 566.135 617.481 566.623C617.28 567.111 616.984 567.555 616.611 567.928C616.238 568.302 615.794 568.598 615.306 568.799C614.817 569 614.294 569.102 613.766 569.1Z" fill="#606C38"/>
<g opacity="0.4">
<path d="M517.458 473.491H479.394V569.1H517.458V473.491Z" fill="black"/>
</g>
<g opacity="0.4">
<path d="M287.265 473.491H249.201V569.1H287.265V473.491Z" fill="black"/>
</g>
<path d="M611.604 493.036C611.604 493.263 596.173 493.459 577.149 493.459C558.125 493.459 542.694 493.263 542.694 493.036C542.694 492.808 558.125 492.678 577.23 492.678C596.336 492.678 611.604 492.792 611.604 493.036Z" fill="#E0E0E0"/>
<path d="M611.604 505.686C611.604 505.93 596.173 506.109 577.149 506.109C558.125 506.109 542.694 505.93 542.694 505.686C542.694 505.442 558.125 505.263 577.149 505.263C596.173 505.263 611.604 505.507 611.604 505.686Z" fill="#E0E0E0"/>
<path d="M611.604 521.377C611.604 521.621 596.173 521.816 577.149 521.816C558.125 521.816 542.694 521.621 542.694 521.377C542.694 521.133 558.125 520.954 577.149 520.954C596.173 520.954 611.604 521.149 611.604 521.377Z" fill="#E0E0E0"/>
<path d="M611.604 537.035C611.604 537.263 596.173 537.458 577.149 537.458C558.125 537.458 542.694 537.263 542.694 537.035C542.694 536.808 558.125 536.58 577.23 536.58C596.336 536.58 611.604 536.791 611.604 537.035Z" fill="#E0E0E0"/>
<path d="M611.604 552.677C611.604 552.921 596.173 553.1 577.149 553.1C558.125 553.1 542.694 552.921 542.694 552.677C542.694 552.434 558.125 552.255 577.149 552.255C596.173 552.255 611.604 552.45 611.604 552.677Z" fill="#E0E0E0"/>
<g opacity="0.2">
<path d="M458.922 512.775H313.981V529.995H458.922V512.775Z" fill="black"/>
</g>
<path d="M610.872 570.97H538.499V622.612H610.872V570.97Z" fill="#FAFAFA"/>
<path d="M539.312 569.084H231.282V624.465H539.312V569.084Z" fill="#455A64"/>
<path d="M537.068 572.84H614.872C615.368 572.84 615.843 572.643 616.194 572.292C616.545 571.941 616.742 571.466 616.742 570.97C616.744 570.723 616.697 570.478 616.604 570.249C616.511 570.021 616.374 569.813 616.2 569.637C616.026 569.462 615.819 569.323 615.591 569.228C615.363 569.133 615.119 569.084 614.872 569.084H537.068V572.84Z" fill="#455A64"/>
<path d="M537.068 620.726H614.872C615.368 620.726 615.843 620.923 616.194 621.273C616.545 621.624 616.742 622.1 616.742 622.595C616.742 623.091 616.545 623.567 616.194 623.918C615.843 624.268 615.368 624.465 614.872 624.465H537.068V620.726Z" fill="#455A64"/>
<path d="M610.888 580.775C610.888 581.002 594.856 581.197 575.116 581.197C555.377 581.197 539.344 581.002 539.344 580.775C539.344 580.547 555.36 580.352 575.116 580.352C594.872 580.352 610.888 580.482 610.888 580.775Z" fill="#E0E0E0"/>
<path d="M610.888 590.547C610.888 590.775 594.856 590.97 575.116 590.97C555.377 590.97 539.344 590.775 539.344 590.547C539.344 590.319 555.36 590.124 575.116 590.124C594.872 590.124 610.888 590.238 610.888 590.547Z" fill="#E0E0E0"/>
<path d="M610.888 600.303C610.888 600.547 594.856 600.726 575.116 600.726C555.377 600.726 539.344 600.547 539.344 600.303C539.344 600.059 555.36 599.88 575.116 599.88C594.872 599.88 610.888 600.075 610.888 600.303Z" fill="#E0E0E0"/>
<path d="M610.888 610.075C610.888 610.319 594.856 610.498 575.116 610.498C555.377 610.498 539.344 610.319 539.344 610.075C539.344 609.831 555.36 609.652 575.116 609.652C594.872 609.652 610.888 609.848 610.888 610.075Z" fill="#E0E0E0"/>
<path d="M491.719 588.921H279.298V603.376H491.719V588.921Z" fill="#263238"/>
<path d="M621.864 629.392H547.978V769.374H621.864V629.392Z" fill="#EBEBEB"/>
<path d="M547.978 624.482H201.201V776.252H547.978V624.482Z" fill="#606C38"/>
<path d="M627.636 776.252H538.499V766.496H627.636C628.93 766.496 630.17 767.01 631.085 767.925C632 768.84 632.514 770.081 632.514 771.374C632.514 772.668 632 773.909 631.085 774.824C630.17 775.739 628.93 776.252 627.636 776.252Z" fill="#606C38"/>
<path d="M538.499 624.482H627.636C628.93 624.482 630.17 624.996 631.085 625.91C632 626.825 632.514 628.066 632.514 629.36C632.514 630.653 632 631.894 631.085 632.809C630.17 633.724 628.93 634.238 627.636 634.238H538.499V624.4V624.482Z" fill="#606C38"/>
<g opacity="0.4">
<path d="M473.394 624.482L400.451 776.252H462.077L531.23 624.482H473.394Z" fill="white"/>
</g>
<g opacity="0.4">
<path d="M358.338 624.482L285.396 776.252H347.005L416.175 624.482H358.338Z" fill="white"/>
</g>
<path d="M621.864 648.156C621.864 648.4 605.327 648.579 584.921 648.579C564.515 648.579 547.978 648.4 547.978 648.156C547.978 647.912 564.515 647.733 584.921 647.733C605.327 647.733 621.864 647.929 621.864 648.156Z" fill="#E0E0E0"/>
<path d="M621.864 666.107C621.864 666.351 605.327 666.53 584.921 666.53C564.515 666.53 547.978 666.351 547.978 666.107C547.978 665.863 564.515 665.684 584.921 665.684C605.327 665.684 621.864 665.88 621.864 666.107Z" fill="#E0E0E0"/>
<path d="M621.864 684.074C621.864 684.302 605.327 684.497 584.921 684.497C564.515 684.497 547.978 684.302 547.978 684.074C547.978 683.847 564.515 683.652 584.921 683.652C605.327 683.652 621.864 683.831 621.864 684.074Z" fill="#E0E0E0"/>
<path d="M621.864 702.026C621.864 702.253 605.327 702.448 584.921 702.448C564.515 702.448 547.978 702.253 547.978 702.026C547.978 701.798 564.515 701.603 584.921 701.603C605.327 701.603 621.864 701.782 621.864 702.026Z" fill="#E0E0E0"/>
<path d="M621.864 719.977C621.864 720.204 605.327 720.399 584.921 720.399C564.515 720.399 547.978 720.204 547.978 719.977C547.978 719.749 564.515 719.554 584.921 719.554C605.327 719.554 621.864 719.749 621.864 719.977Z" fill="#E0E0E0"/>
<path d="M621.864 737.928C621.864 738.155 605.327 738.35 584.921 738.35C564.515 738.35 547.962 738.204 547.962 737.928C547.962 737.651 564.498 737.505 584.905 737.505C605.311 737.505 621.864 737.7 621.864 737.928Z" fill="#E0E0E0"/>
<path d="M621.864 755.879C621.864 756.122 605.327 756.301 584.921 756.301C564.515 756.301 547.962 756.09 547.962 755.879C547.962 755.667 564.498 755.456 584.905 755.456C605.311 755.456 621.864 755.651 621.864 755.879Z" fill="#E0E0E0"/>
<path d="M577.897 216.697L555.263 180.372C555.147 180.187 554.987 180.035 554.796 179.929C554.606 179.824 554.391 179.768 554.173 179.768C553.955 179.768 553.741 179.824 553.55 179.929C553.36 180.035 553.199 180.187 553.084 180.372L530.873 218.778L577.897 216.697Z" fill="#606C38"/>
<g opacity="0.3">
<path d="M577.897 216.697L555.263 180.372C555.147 180.187 554.987 180.035 554.796 179.929C554.606 179.824 554.391 179.768 554.173 179.768C553.955 179.768 553.741 179.824 553.55 179.929C553.36 180.035 553.199 180.187 553.084 180.372L530.873 218.778L577.897 216.697Z" fill="black"/>
</g>
<path d="M555.263 182.096L576.417 216.551L571.035 215.705L536.482 210.258L549.36 183.169L555.263 182.096Z" fill="#EBEBEB"/>
<path d="M557.523 249.835L577.897 216.697L525.133 206.941C524.293 206.784 523.425 206.89 522.648 207.246C521.871 207.601 521.223 208.187 520.792 208.925L491.036 259.331C490.825 259.69 490.704 260.095 490.683 260.511C490.662 260.927 490.742 261.342 490.916 261.72C491.09 262.098 491.353 262.429 491.683 262.684C492.012 262.939 492.398 263.111 492.808 263.184L542.401 271.981L557.523 249.835Z" fill="#606C38"/>
<path d="M543.442 184.177L572.726 215.884L530.206 207.917L543.442 184.177Z" fill="#EBEBEB"/>
<path d="M530.206 207.917C530.248 207.751 530.313 207.592 530.401 207.445L531.052 206.161L533.653 201.283C535.995 197.039 539.247 191.104 543.133 183.998L543.377 183.559L543.718 183.933L562.807 204.518L573.019 215.608L572.384 216.112C565.718 206.665 559.929 198.486 555.751 192.583L550.986 185.689L549.751 183.836C549.594 183.627 549.458 183.404 549.344 183.169C549.344 183.169 549.539 183.348 549.864 183.754L551.214 185.543L556.173 192.275L573.051 215.64L572.417 216.16L562.189 205.104L543.182 184.421H543.767C539.767 191.462 536.434 197.429 534.011 201.559L531.23 206.339L530.482 207.575C530.32 207.787 530.222 207.933 530.206 207.917Z" fill="#263238"/>
<g opacity="0.3">
<path d="M530.791 221.705C530.336 222.388 513.036 251.217 513.036 251.217L541.23 256.485L559.946 226.583L530.791 221.705Z" fill="white"/>
</g>
<path d="M318.696 713.489L334.192 693.245L335.005 692.204L361.411 711.847L337.021 738.708L337.915 765.895C351.525 769.423 353.574 776.22 353.574 776.22H325.265L299.428 726.659L318.696 713.489Z" fill="#455A64"/>
<path d="M299.428 726.659L325.2 776.187H353.509C352.769 774.535 351.656 773.076 350.257 771.927L327.232 770.724L303.509 723.911L299.428 726.659Z" fill="#EBEBEB"/>
<path d="M337.606 753.44C337.395 753.732 335.769 752.806 333.574 752.854C331.379 752.903 329.785 753.83 329.558 753.537C329.33 753.245 330.891 751.635 333.558 751.619C336.224 751.602 337.867 753.212 337.606 753.44Z" fill="#263238"/>
<path d="M337.151 746.692C336.875 746.887 335.606 745.228 333.346 744.773C331.086 744.318 329.298 745.375 329.102 745.082C328.907 744.789 329.346 744.48 330.127 744.041C331.197 743.485 332.425 743.313 333.606 743.554C334.781 743.797 335.84 744.427 336.615 745.342C337.167 746.058 337.297 746.61 337.151 746.692Z" fill="#263238"/>
<path d="M337.346 738.025C337.037 738.188 336.078 736.546 334.094 735.863C332.11 735.18 330.354 735.863 330.208 735.505C330.062 735.147 330.501 734.968 331.281 734.676C332.333 734.304 333.481 734.304 334.533 734.676C335.575 735.048 336.462 735.758 337.054 736.692C337.46 737.44 337.493 737.976 337.346 738.025Z" fill="#263238"/>
<path d="M344.923 731.326C344.582 731.44 343.801 729.83 342.045 728.692C340.289 727.554 338.517 727.375 338.501 727.066C338.484 726.757 340.598 726.253 342.728 727.684C344.858 729.115 345.265 731.277 344.923 731.326Z" fill="#263238"/>
<path d="M348.631 725.505C348.484 725.602 347.541 724.464 346.159 722.546L343.769 719.147C343.214 718.455 342.77 717.682 342.452 716.855C342.285 716.279 342.35 715.661 342.631 715.131C342.797 714.832 343.047 714.588 343.351 714.429C343.654 714.27 343.997 714.203 344.338 714.237C345.334 714.426 346.251 714.907 346.972 715.619C347.641 716.186 348.222 716.849 348.696 717.586C349.496 718.815 350.002 720.212 350.175 721.668C350.466 722.991 350.24 724.376 349.541 725.537C349.534 724.293 349.458 723.05 349.314 721.814C348.907 719.752 347.805 717.892 346.192 716.546C345.638 716.038 344.968 715.675 344.24 715.489C344.137 715.465 344.028 715.476 343.931 715.521C343.834 715.565 343.754 715.639 343.704 715.733C343.611 715.996 343.611 716.283 343.704 716.546C343.992 717.244 344.363 717.904 344.81 718.513C345.541 719.716 346.257 720.903 346.972 722.058C347.692 723.119 348.251 724.28 348.631 725.505Z" fill="#263238"/>
<path d="M349.59 726.35C349.46 726.35 349.59 724.854 351.102 723.098C352.149 721.973 353.534 721.219 355.047 720.949C356.561 720.679 358.121 720.909 359.492 721.602C359.635 721.728 359.748 721.884 359.824 722.058C359.899 722.232 359.936 722.421 359.931 722.611C359.91 722.936 359.791 723.248 359.59 723.505C359.292 723.849 358.947 724.15 358.566 724.399C357.934 724.837 357.265 725.218 356.566 725.537C355.389 726.085 354.132 726.437 352.842 726.578C351.671 726.829 350.451 726.715 349.346 726.253C350.452 726.007 351.57 725.822 352.696 725.7C353.871 725.451 355.009 725.046 356.078 724.497C356.702 724.182 357.3 723.817 357.866 723.407C358.133 723.224 358.378 723.011 358.598 722.773C358.728 722.513 358.696 722.594 358.598 722.513C358.35 722.358 358.073 722.253 357.785 722.204C357.437 722.126 357.084 722.072 356.728 722.042C356.053 721.999 355.374 722.048 354.712 722.188C353.581 722.443 352.531 722.974 351.655 723.733C350.24 725.196 349.818 726.432 349.59 726.35Z" fill="#263238"/>
<path d="M321.948 725.814C321.948 726.48 321.751 727.13 321.381 727.684C321.011 728.237 320.485 728.669 319.87 728.923C319.255 729.178 318.578 729.245 317.926 729.115C317.273 728.985 316.673 728.665 316.202 728.194C315.731 727.723 315.411 727.123 315.281 726.47C315.151 725.818 315.218 725.141 315.473 724.526C315.727 723.911 316.159 723.385 316.712 723.015C317.266 722.645 317.916 722.448 318.582 722.448C319.475 722.448 320.331 722.803 320.962 723.434C321.593 724.065 321.948 724.921 321.948 725.814Z" fill="#EBEBEB"/>
<g opacity="0.3">
<path d="M358.874 714.546L353.444 720.513L330.582 697.879L333.769 693.733L358.874 714.546Z" fill="black"/>
</g>
<path d="M429.443 723.781L426.549 758.204C426.549 758.204 460.564 769.813 460.695 776.22L393.752 775.911L396.061 722.09L429.443 723.781Z" fill="#455A64"/>
<path d="M405.98 754.301C405.325 754.467 404.755 754.87 404.379 755.431C404.004 755.993 403.85 756.674 403.947 757.342C404.089 757.998 404.475 758.576 405.028 758.957C405.581 759.338 406.259 759.493 406.923 759.391C407.621 759.213 408.228 758.782 408.625 758.18C409.022 757.579 409.18 756.851 409.069 756.139C408.852 755.465 408.381 754.901 407.756 754.567C407.131 754.234 406.401 754.156 405.72 754.35" fill="#EBEBEB"/>
<path d="M393.703 775.911L393.931 770.545L457.345 772.057C457.345 772.057 460.711 774.756 460.678 776.22L393.703 775.911Z" fill="#EBEBEB"/>
<path d="M427.638 757.911C427.638 758.236 426.012 758.318 424.386 759.293C422.76 760.269 421.801 761.586 421.508 761.456C421.215 761.326 421.784 759.44 423.817 758.301C425.849 757.163 427.736 757.618 427.638 757.911Z" fill="#263238"/>
<path d="M434.532 761.163C434.532 761.472 433.134 761.96 431.963 763.293C430.792 764.626 430.337 766.074 430.077 766.041C429.817 766.009 429.622 764.155 431.118 762.529C432.614 760.903 434.532 760.838 434.532 761.163Z" fill="#263238"/>
<path d="M438.109 769.748C437.8 769.748 437.427 768.122 438.353 766.399C439.28 764.675 440.841 764.009 440.971 764.285C441.101 764.561 440.109 765.488 439.345 766.935C438.581 768.383 438.435 769.732 438.109 769.748Z" fill="#263238"/>
<path d="M427.427 749.992C427.28 750.285 425.801 749.765 423.947 749.797C422.093 749.83 420.695 750.35 420.467 750.057C420.24 749.765 421.752 748.675 423.931 748.659C426.11 748.643 427.638 749.749 427.427 749.992Z" fill="#263238"/>
<path d="M427.882 743.082C426.769 743.316 425.614 743.255 424.532 742.903C423.338 742.624 422.181 742.204 421.085 741.651C420.429 741.326 419.798 740.951 419.199 740.529C418.834 740.303 418.505 740.024 418.223 739.7C418.032 739.45 417.929 739.144 417.929 738.83C417.929 738.515 418.032 738.21 418.223 737.96C418.398 737.737 418.624 737.559 418.881 737.44C419.138 737.322 419.42 737.266 419.703 737.277C420.124 737.294 420.54 737.37 420.939 737.505C421.643 737.718 422.329 737.99 422.988 738.318C424.095 738.887 425.109 739.622 425.996 740.497C427.475 742.009 427.947 743.261 427.833 743.326C427.719 743.391 426.971 742.366 425.443 741.098C424.553 740.367 423.575 739.75 422.532 739.261C421.922 738.985 421.292 738.756 420.646 738.578C419.947 738.367 419.329 738.334 419.134 738.578C418.939 738.822 419.053 738.757 419.134 738.968C419.345 739.199 419.585 739.402 419.849 739.57C420.401 739.973 420.977 740.342 421.573 740.675C422.609 741.246 423.698 741.714 424.825 742.074C425.869 742.329 426.891 742.666 427.882 743.082Z" fill="#263238"/>
<path d="M427.443 743.488C427.313 743.488 426.727 742.334 426.711 740.236C426.716 738.995 426.93 737.764 427.345 736.594C427.599 735.901 427.915 735.231 428.288 734.594C428.494 734.158 428.806 733.781 429.195 733.497C429.584 733.213 430.038 733.031 430.516 732.968C430.812 732.997 431.094 733.106 431.332 733.284C431.569 733.462 431.754 733.701 431.866 733.976C432.023 734.377 432.122 734.799 432.158 735.228C432.236 735.983 432.197 736.745 432.044 737.489C431.796 738.735 431.237 739.898 430.418 740.871C429.02 742.497 427.638 742.871 427.622 742.757C427.605 742.643 428.695 742.009 429.768 740.399C430.393 739.464 430.809 738.404 430.988 737.293C431.077 736.652 431.077 736 430.988 735.358C430.906 734.643 430.679 734.058 430.402 734.106C430.126 734.155 429.475 734.594 429.183 735.163C428.817 735.723 428.506 736.316 428.256 736.936C427.839 737.978 427.566 739.072 427.443 740.188C427.329 742.204 427.638 743.456 427.443 743.488Z" fill="#263238"/>
<path d="M565.198 260.664C565.849 258.735 565.768 256.635 564.97 254.762C562.206 248.258 555.702 233.624 553.344 234.03C551.263 234.404 549.734 238.372 552.108 242.746L544.45 236.242C544.107 235.947 543.682 235.765 543.232 235.719C542.782 235.674 542.33 235.767 541.934 235.987C541.539 236.206 541.221 236.542 541.023 236.948C540.824 237.354 540.755 237.811 540.824 238.258C541.016 239.243 541.333 240.199 541.767 241.103C544.141 246.144 550.742 250.859 550.742 250.859L537.409 250.941C537.409 250.941 534.921 254.42 539.491 256.762C540.51 257.26 541.612 257.569 542.743 257.672L549.637 258.371C549.637 258.371 537.182 272.144 536.759 273.428C536.149 275.493 535.778 277.62 535.653 279.77L511.751 306.355L518.141 346.777L561.328 271.981L565.198 260.664Z" fill="#B78876"/>
<path d="M561.734 254.583C561.62 254.664 561.181 254.03 560.238 253.315C558.988 252.414 557.547 251.813 556.027 251.559C554.473 251.316 552.899 251.229 551.328 251.298C550.654 251.385 549.971 251.346 549.312 251.185C549.312 251.071 550.043 250.876 551.279 250.697C552.895 250.446 554.541 250.446 556.157 250.697C557.817 250.96 559.365 251.7 560.612 252.827C561.555 253.77 561.816 254.55 561.734 254.583Z" fill="#AA6550"/>
<path d="M561.946 250.404C559.987 249.402 558.167 248.15 556.531 246.681C554.719 245.432 553.078 243.951 551.653 242.274C553.611 243.29 555.436 244.547 557.084 246.014C558.882 247.267 560.516 248.742 561.946 250.404Z" fill="#AA6550"/>
<path d="M444.061 449.752C444.418 449.752 445.687 529.426 446.207 565.312C446.37 576.613 443.458 587.747 437.784 597.523L359.98 734.204L315.281 697.018L387.557 574.872L360.972 446.126L413.654 400.825L444.061 449.752Z" fill="#263238"/>
<path d="M481.865 433.475C481.637 438.061 439.589 733.537 439.589 733.537L387.557 729.83L406.646 431.638L481.865 433.475Z" fill="#263238"/>
<path d="M438.288 454.207C438.288 454.207 438.288 454.483 438.386 454.987C438.483 455.491 438.516 456.288 438.613 457.264C438.776 459.312 439.036 462.256 439.345 466.044C439.947 473.703 440.825 484.711 441.882 498.304C442.939 511.897 444.093 528.174 445.426 546.19C445.719 550.71 446.023 555.328 446.337 560.043C446.467 562.401 446.678 564.807 446.597 567.23C446.528 569.688 446.289 572.138 445.882 574.563C445.041 579.539 443.52 584.376 441.361 588.937C440.288 591.262 439.004 593.474 437.752 595.734L433.963 602.514L381.801 695.733C375.102 707.603 369.671 717.229 365.915 723.928C364.029 727.18 362.565 729.798 361.541 731.57L360.403 733.554L359.98 734.204C359.98 734.204 360.078 733.96 360.322 733.505L361.395 731.489L365.622 723.765L381.281 695.44C394.581 671.522 412.939 638.53 433.231 602.108C434.5 599.831 435.752 597.555 437.02 595.311C438.288 593.067 439.557 590.856 440.597 588.58C442.722 584.083 444.226 579.319 445.069 574.417C445.471 572.035 445.704 569.628 445.768 567.214C445.865 564.824 445.654 562.45 445.54 560.092C445.237 555.377 444.939 550.764 444.646 546.255C443.378 528.222 442.239 511.995 441.296 498.353C440.353 484.711 439.557 473.735 439.02 466.06C438.776 462.288 438.581 459.329 438.435 457.28C438.435 456.304 438.337 455.54 438.305 454.987C438.272 454.435 438.288 454.207 438.288 454.207Z" fill="#455A64"/>
<path d="M402.728 593.945C402.367 593.949 402.01 593.889 401.671 593.766C400.728 593.527 399.812 593.189 398.939 592.758C396.042 591.326 393.524 589.231 391.589 586.643C389.654 584.055 388.356 581.048 387.801 577.864C387.638 576.903 387.573 575.928 387.606 574.954C387.606 574.271 387.606 573.897 387.736 573.897C387.866 573.897 387.882 575.409 388.386 577.75C389.08 580.785 390.402 583.641 392.267 586.134C394.132 588.626 396.499 590.7 399.216 592.222C401.313 593.376 402.76 593.799 402.728 593.945Z" fill="#455A64"/>
<path d="M408.614 585.051C407.363 585.293 406.077 585.293 404.825 585.051C401.777 584.636 398.842 583.619 396.191 582.059C393.54 580.503 391.22 578.443 389.362 575.994C388.543 575.035 387.909 573.933 387.492 572.742C387.622 572.742 388.354 573.913 389.834 575.669C393.708 580.251 399.032 583.372 404.923 584.515C407.167 584.872 408.614 584.905 408.614 585.051Z" fill="#455A64"/>
<path d="M371.931 458.532C371.931 458.532 372.289 458.987 373.183 459.394C373.825 459.641 374.512 459.744 375.198 459.696C375.883 459.648 376.55 459.451 377.151 459.117C378.962 458.05 380.676 456.826 382.273 455.459C384.142 453.963 386.126 452.207 388.142 450.369C391.561 447.12 394.75 443.638 397.687 439.947C399.931 437.118 401.215 435.264 401.313 435.345C401.132 435.845 400.881 436.316 400.565 436.744C400.045 437.605 399.232 438.841 398.159 440.321C395.341 444.152 392.185 447.722 388.728 450.987C386.695 452.89 384.663 454.597 382.76 456.077C381.097 457.447 379.299 458.645 377.395 459.654C376.718 459.992 375.972 460.168 375.216 460.168C374.459 460.168 373.714 459.992 373.037 459.654C372.094 459.101 371.899 458.532 371.931 458.532Z" fill="#455A64"/>
<path d="M400.907 456.077C400.394 457.679 399.701 459.217 398.842 460.662C396.989 464.307 394.45 467.559 391.362 470.239C388.172 472.937 384.156 474.463 379.98 474.564C378.735 474.583 377.496 474.408 376.305 474.044C375.855 473.945 375.43 473.757 375.053 473.491C376.659 473.816 378.293 473.974 379.931 473.963C383.902 473.684 387.682 472.152 390.728 469.589C393.728 466.96 396.262 463.843 398.224 460.369C399.036 458.889 399.932 457.456 400.907 456.077Z" fill="#455A64"/>
<path d="M481.865 433.475C481.865 433.475 441.703 452.223 427.297 445.768C412.89 439.313 403.459 424.419 393.037 427.882C382.614 431.345 366.712 434.386 361.248 449.231C360.085 447.977 359.18 446.506 358.585 444.902C357.991 443.297 357.719 441.591 357.785 439.882C357.785 434.093 362.663 426.24 362.663 426.24L356.159 359.151L356.435 246.339C356.435 246.339 367.622 229.673 397.915 230.664L439.752 236.681C439.752 236.681 461.101 243.185 467.052 254.063C473.003 264.94 470.532 342.647 470.532 342.647C470.532 342.647 483.767 418.028 483.767 423.947C483.843 427.226 483.205 430.483 481.898 433.492" fill="#606C38"/>
<path d="M505.686 305.249L488.434 320.631L467.068 254.079L449.182 294.16L456.402 359.2C456.967 364.286 459.084 369.075 462.464 372.917C465.844 376.76 470.324 379.47 475.296 380.679C479.206 381.624 483.287 381.61 487.191 380.639C491.095 379.668 494.707 377.769 497.719 375.102L515.93 359.525C517.218 358.437 518.202 357.034 518.786 355.452C519.37 353.871 519.535 352.165 519.263 350.501L512.483 307.704C512.376 306.97 512.072 306.279 511.603 305.704C511.134 305.129 510.518 304.692 509.82 304.44C509.122 304.188 508.369 304.13 507.641 304.273C506.913 304.415 506.237 304.753 505.686 305.249Z" fill="#606C38"/>
<path d="M375.021 287.233C375.021 288.713 367.004 361.362 367.004 361.362L400.972 434.841C397.72 441.768 391.346 448.061 384.338 454.207C384.338 454.207 375.655 446.272 375.151 429.378C375.151 429.378 336.549 384.029 332.582 372.11C328.615 360.192 339.541 278.794 339.541 278.794L375.021 287.233Z" fill="#B78876"/>
<path d="M461.312 299.883C461.15 300.407 460.914 300.905 460.613 301.363C460.109 302.29 459.361 303.607 458.418 305.233C457.358 307.168 456.196 309.046 454.939 310.859C454.158 311.957 453.169 312.89 452.028 313.607C450.763 314.351 449.332 314.77 447.865 314.826C445.067 314.887 442.328 314.017 440.077 312.355C438.288 310.99 436.734 309.342 435.475 307.477C434.616 306.261 433.829 304.996 433.118 303.688C432.816 303.234 432.575 302.742 432.402 302.225C432.532 302.143 433.719 304.143 435.947 307.103C437.238 308.836 438.778 310.371 440.516 311.655C442.649 313.175 445.215 313.967 447.833 313.916C449.156 313.873 450.448 313.498 451.589 312.826C452.65 312.172 453.577 311.322 454.321 310.322C455.784 308.387 456.873 306.403 457.914 304.842C458.955 303.282 459.751 301.997 460.337 301.135C460.607 300.678 460.935 300.257 461.312 299.883Z" fill="#263238"/>
<path d="M486.337 360.143C486.058 359.685 485.839 359.193 485.686 358.679C485.171 357.304 484.742 355.897 484.402 354.468C482.067 344.972 482.57 334.999 485.849 325.785C486.339 324.404 486.909 323.052 487.556 321.737C487.759 321.238 488.027 320.768 488.353 320.338C488.499 320.338 487.524 322.468 486.418 325.98C484.979 330.548 484.121 335.279 483.865 340.062C483.639 344.848 484.011 349.644 484.971 354.338C485.735 357.931 486.483 360.094 486.337 360.143Z" fill="#263238"/>
<path d="M495.426 346.826C494.576 345.758 493.871 344.582 493.328 343.33C490.389 337.424 488.67 330.988 488.272 324.403C488.095 323.054 488.095 321.687 488.272 320.338C488.553 321.661 488.727 323.004 488.792 324.354C489.156 327.581 489.754 330.776 490.58 333.915C491.448 337.045 492.535 340.109 493.832 343.086C494.458 344.29 494.991 345.54 495.426 346.826Z" fill="#263238"/>
<path d="M460.158 313.509C460.158 313.509 460.321 313.753 460.532 314.225C460.845 314.934 461.117 315.662 461.345 316.403C462.21 319.134 462.573 321.999 462.418 324.859C462.203 329.164 460.522 333.266 457.654 336.484C455.959 338.399 453.837 339.886 451.459 340.826C448.872 341.833 446.048 342.07 443.329 341.509C440.604 340.994 438.109 339.641 436.191 337.639C434.493 335.724 433.312 333.407 432.76 330.907C432.253 328.704 431.927 326.464 431.784 324.208C431.622 322.111 431.459 320.159 431.313 318.355C431.069 314.891 430.874 312.029 430.711 309.899C430.711 308.973 430.63 308.273 430.597 307.59C430.56 307.321 430.56 307.047 430.597 306.777C430.675 307.037 430.725 307.304 430.744 307.574C430.744 308.192 430.923 308.956 431.02 309.867C431.248 311.997 431.54 314.842 431.898 318.306C432.077 320.111 432.256 322.062 432.467 324.143C432.641 326.334 432.984 328.509 433.492 330.647C434.02 333.007 435.139 335.195 436.744 337.005C438.551 338.87 440.891 340.131 443.443 340.615C445.988 341.129 448.627 340.909 451.052 339.98C453.31 339.096 455.331 337.699 456.955 335.899C459.742 332.818 461.414 328.89 461.703 324.745C461.915 321.946 461.651 319.131 460.922 316.42C460.548 314.566 460.158 313.542 460.158 313.509Z" fill="#263238"/>
<g opacity="0.2">
<path d="M377.899 384.907C378.517 379.612 379.818 374.42 381.769 369.46C384.11 363.297 387.167 357.183 387.264 350.582C387.13 346.428 386.396 342.315 385.086 338.371L373.232 295.656C372.777 306.691 372.327 317.737 371.882 328.794C371.527 331.481 371.956 334.214 373.118 336.663C374.874 339.525 378.468 340.777 380.468 343.46C381.229 344.503 381.726 345.715 381.915 346.993C382.105 348.27 381.982 349.574 381.557 350.793C380.679 353.216 378.5 353.834 376.012 354.436C374.877 354.732 373.727 354.966 372.565 355.135C370.939 355.395 368.403 355.021 367.687 356.566C365.72 360.403 367.817 362.728 368.647 364.566C372.419 372.939 377.964 384.907 377.964 384.907" fill="black"/>
</g>
<path d="M363.395 240.648C363.395 240.648 328.452 258.306 323.574 352.744C323.494 354.264 323.76 355.781 324.351 357.182C324.943 358.584 325.845 359.833 326.989 360.835C328.134 361.837 329.491 362.566 330.958 362.967C332.426 363.368 333.965 363.431 335.46 363.151C349.818 360.419 371.574 356.192 371.427 355.606C371.232 354.744 379.557 272.501 379.557 272.501L363.395 240.648Z" fill="#606C38"/>
<path d="M378.858 271.038C378.858 271.038 378.858 271.477 378.858 272.306C378.858 273.136 378.858 274.355 378.858 275.916C378.858 279.054 378.598 283.607 378.224 289.217C377.85 294.826 377.281 301.493 376.5 308.875C376.094 312.566 375.655 316.436 375.216 320.452C374.972 322.468 374.728 324.501 374.468 326.582C374.208 328.663 373.59 330.761 373.265 332.81C373.078 333.809 373.078 334.835 373.265 335.834C373.503 336.786 373.985 337.66 374.663 338.371C375.996 339.834 377.915 340.598 379.541 342.078C380.995 343.577 381.93 345.504 382.208 347.574C382.354 348.566 382.354 349.574 382.208 350.566C382.174 351.593 381.747 352.567 381.014 353.288C380.282 354.008 379.3 354.419 378.273 354.435L375.639 354.94L370.63 355.931L361.752 357.72L348.744 360.435L346.696 360.842L345.883 361.005H345.753C345.753 361.005 345.753 360.631 345.753 360.809H345.932H346.24C346.65 360.7 347.069 360.635 347.492 360.614C347.104 360.772 346.701 360.891 346.289 360.972H345.964H345.785C345.785 361.151 345.785 360.728 345.785 360.777H345.883L346.696 360.582L348.728 360.094L361.736 357.118L370.712 355.167L375.72 354.127L378.354 353.59C379.121 353.549 379.86 353.289 380.484 352.842C380.997 352.114 381.344 351.282 381.498 350.405C381.653 349.528 381.612 348.628 381.378 347.769C381.119 345.878 380.265 344.118 378.939 342.745C377.557 341.411 375.557 340.631 374.061 339.005C373.273 338.188 372.713 337.179 372.435 336.078C372.224 334.977 372.224 333.846 372.435 332.745C372.777 330.566 373.46 328.598 373.639 326.533C373.817 324.468 374.143 322.42 374.387 320.42C374.858 316.42 375.297 312.55 375.736 308.859C376.549 301.477 377.183 294.826 377.622 289.233C378.061 283.639 378.354 279.103 378.533 275.965L378.728 272.355C378.722 271.913 378.766 271.471 378.858 271.038Z" fill="#263238"/>
<path d="M364.5 328.94C364.49 329.323 364.419 329.702 364.289 330.062C364.19 330.497 364.049 330.922 363.866 331.33C363.653 331.888 363.403 332.431 363.118 332.956C362.4 334.336 361.503 335.615 360.452 336.761C359.157 338.149 357.686 339.362 356.078 340.371C354.452 341.356 352.702 342.122 350.875 342.647C349.381 343.062 347.839 343.28 346.289 343.297C345.694 343.341 345.096 343.341 344.501 343.297C344.057 343.268 343.616 343.203 343.184 343.102C342.8 343.051 342.428 342.942 342.078 342.777C342.078 342.614 343.704 342.94 346.257 342.777C347.745 342.672 349.217 342.405 350.647 341.98C352.391 341.426 354.066 340.673 355.639 339.736C357.182 338.761 358.606 337.61 359.883 336.306C360.919 335.224 361.829 334.03 362.598 332.745C363.915 330.452 364.338 328.891 364.5 328.94Z" fill="#263238"/>
<g opacity="0.2">
<path d="M402.224 413.199C418.484 422.841 438.418 425.15 457.134 422.305C460.237 421.968 463.257 421.093 466.06 419.719C467.452 419.015 468.673 418.016 469.639 416.792C470.605 415.567 471.293 414.147 471.654 412.63C471.965 411.097 471.737 409.504 471.008 408.12C470.279 406.736 469.094 405.647 467.654 405.037C464.678 404.029 461.524 405.655 458.711 407.069C440.929 415.95 420.51 418.009 401.313 412.858" fill="black"/>
</g>
<path d="M478.044 414.63C477.833 414.835 477.598 415.015 477.345 415.167C476.857 415.492 476.174 416.028 475.199 416.581C472.503 418.203 469.648 419.544 466.678 420.581C456.789 423.854 446.274 424.784 435.963 423.297C425.725 421.753 415.694 419.058 406.061 415.264C402.354 413.866 399.378 412.679 397.329 411.833L394.972 410.841C394.693 410.734 394.426 410.598 394.175 410.435C394.469 410.49 394.757 410.572 395.037 410.679L397.443 411.524L406.272 414.695C415.91 418.312 425.899 420.912 436.077 422.451C446.267 423.919 456.657 423.086 466.483 420.012C469.44 419.029 472.302 417.783 475.036 416.289C476.971 415.264 478.044 414.63 478.044 414.63Z" fill="#263238"/>
<g opacity="0.2">
<path d="M477.117 380.956C481.995 376.078 481.995 367.281 481.02 360.435C480.044 353.59 477.394 347.021 476.467 340.143C475.589 333.639 476.223 326.989 475.93 320.403C475.638 313.818 474.223 306.956 469.946 301.964C467.422 328.512 469.853 355.297 477.117 380.956Z" fill="black"/>
</g>
<g opacity="0.2">
<path d="M430.89 309.509C430.142 313.834 430.89 318.371 430.516 322.794C430.004 327.207 430.004 331.665 430.516 336.078C431.048 340.532 433.098 344.666 436.321 347.785C437.944 349.31 439.961 350.352 442.144 350.794C444.326 351.236 446.589 351.061 448.678 350.289C450.704 349.306 452.384 347.733 453.498 345.777C454.613 343.821 455.109 341.573 454.922 339.33C451.986 340.766 448.717 341.384 445.459 341.119C442.192 340.844 439.14 339.373 436.89 336.989C433.865 333.253 432.186 328.608 432.126 323.802C431.817 319.054 431.231 314.192 430.841 309.509" fill="black"/>
</g>
<path d="M376.614 297.314C376.049 297.522 375.458 297.653 374.858 297.704C373.72 297.883 372.078 298.127 369.98 298.371C364.627 299.088 359.203 299.088 353.85 298.371C348.439 297.628 343.33 295.431 339.07 292.013C337.801 290.963 336.665 289.762 335.688 288.436C335.309 287.967 334.997 287.447 334.761 286.891C336.178 288.585 337.746 290.147 339.444 291.558C343.71 294.742 348.709 296.8 353.98 297.542C359.267 298.218 364.613 298.283 369.915 297.737L374.793 297.347C375.397 297.265 376.008 297.254 376.614 297.314Z" fill="#FAFAFA"/>
<path d="M374.321 309.802C373.773 310.073 373.194 310.281 372.598 310.42C371.915 310.638 371.22 310.817 370.517 310.956C369.704 311.119 368.777 311.346 367.72 311.477C365.271 311.841 362.797 312.005 360.322 311.964C357.289 311.885 354.269 311.537 351.297 310.924C348.336 310.259 345.441 309.329 342.647 308.143C340.386 307.16 338.21 305.991 336.143 304.647C335.249 304.111 334.517 303.509 333.818 303.021C333.248 302.605 332.705 302.155 332.192 301.672C331.703 301.304 331.26 300.879 330.875 300.404C330.989 300.273 332.94 302.03 336.517 304.143C338.602 305.386 340.776 306.473 343.021 307.395C348.545 309.691 354.44 310.963 360.419 311.151C362.852 311.226 365.286 311.123 367.704 310.842C371.785 310.387 374.273 309.639 374.321 309.802Z" fill="#FAFAFA"/>
<path d="M429.573 307.769C429.573 307.997 417.768 307.883 403.232 307.509C388.695 307.135 376.891 306.647 376.907 306.403C376.923 306.16 388.695 306.29 403.248 306.664C417.801 307.038 429.573 307.525 429.573 307.769Z" fill="#FAFAFA"/>
<path d="M431.264 320.891C430.569 321.193 429.844 321.422 429.101 321.574C427.703 321.964 425.654 322.436 423.085 322.94C416.412 324.223 409.637 324.904 402.842 324.972C396.043 325.033 389.252 324.489 382.549 323.346C379.98 322.891 377.915 322.468 376.517 322.094C375.771 321.958 375.041 321.745 374.338 321.46C375.093 321.501 375.844 321.604 376.582 321.769C377.996 322.046 380.078 322.387 382.647 322.745C396.035 324.686 409.643 324.543 422.988 322.322C425.54 321.899 427.605 321.509 429.036 321.216C429.768 321.045 430.514 320.936 431.264 320.891Z" fill="#FAFAFA"/>
<path d="M461.784 318.485C461.68 318.915 461.498 319.323 461.247 319.688C460.619 320.728 459.809 321.648 458.857 322.403C455.624 324.838 451.578 325.939 447.556 325.476C443.626 324.944 439.849 323.598 436.467 321.525C435.016 320.782 433.657 319.87 432.418 318.81C433.906 319.448 435.35 320.182 436.744 321.005C440.129 322.871 443.826 324.106 447.654 324.647C451.487 325.096 455.353 324.137 458.532 321.948C459.762 320.94 460.856 319.776 461.784 318.485Z" fill="#FAFAFA"/>
<path d="M469.134 308.501C467.829 309.197 466.406 309.643 464.938 309.818C463.531 310.259 462.051 310.424 460.581 310.306C461.884 309.607 463.307 309.16 464.776 308.989C466.184 308.548 467.663 308.383 469.134 308.501Z" fill="#FAFAFA"/>
<path d="M484.857 309.021C482.549 310.657 479.997 311.919 477.296 312.761C474.706 313.849 471.964 314.529 469.166 314.777C469.166 314.533 472.743 313.558 477.068 311.964C481.394 310.371 484.743 308.81 484.857 309.021Z" fill="#FAFAFA"/>
<path d="M479.67 293.444C478.057 294.09 476.385 294.58 474.678 294.908C473.053 295.524 471.37 295.976 469.654 296.257C472.633 294.333 476.124 293.353 479.67 293.444Z" fill="#FAFAFA"/>
<path d="M470.808 287.493C470.844 287.812 470.844 288.134 470.808 288.452L470.564 291.184C470.451 292.371 470.32 293.818 470.207 295.509C470.093 297.2 469.914 299.119 469.833 301.233C469.556 305.493 469.426 310.55 469.394 316.176C469.361 321.802 469.573 327.997 469.963 334.468C470.353 340.94 471.036 347.102 471.735 352.696C472.434 358.289 473.28 363.281 474.093 367.46C474.467 369.557 474.873 371.427 475.215 373.086C475.556 374.744 475.849 376.175 476.125 377.33C476.402 378.484 476.548 379.313 476.711 380.013C476.803 380.319 476.852 380.636 476.857 380.956C476.717 380.666 476.613 380.36 476.548 380.045L475.8 377.411C475.475 376.256 475.117 374.842 474.743 373.183C474.369 371.525 473.914 369.655 473.507 367.574C472.613 363.395 471.784 358.387 470.971 352.793C470.158 347.2 469.556 341.021 469.117 334.533C468.678 328.046 468.581 321.818 468.613 316.176C468.646 310.534 468.873 305.46 469.231 301.2C469.361 299.07 469.573 297.152 469.735 295.461C469.898 293.769 470.077 292.322 470.239 291.152C470.402 289.981 470.532 289.135 470.629 288.436C470.647 288.115 470.707 287.798 470.808 287.493Z" fill="#263238"/>
<g opacity="0.2">
<path d="M435.329 306.582C437.781 308.146 440.584 309.076 443.484 309.288C446.384 309.501 449.292 308.991 451.947 307.802C452.561 307.475 453.218 307.234 453.898 307.086C454.239 307.025 454.59 307.057 454.914 307.18C455.238 307.303 455.522 307.513 455.735 307.786C455.92 308.227 455.969 308.713 455.877 309.182C455.784 309.651 455.554 310.082 455.215 310.42C453.947 311.913 452.278 313.012 450.405 313.588C448.533 314.165 446.534 314.194 444.646 313.672C440.864 312.535 437.644 310.023 435.622 306.631" fill="black"/>
</g>
<path d="M404.874 167.689C403.878 163.994 403.257 160.208 403.02 156.389C402.773 152.542 403.679 148.709 405.622 145.381C406.604 143.732 407.973 142.348 409.611 141.348C411.248 140.348 413.105 139.762 415.02 139.641C417.378 139.641 419.752 140.405 422.077 139.982C424.76 139.495 426.858 137.462 429.15 135.982C432.756 133.627 437.032 132.514 441.329 132.812C443.562 132.917 445.718 133.662 447.54 134.958C448.457 135.589 449.201 136.442 449.701 137.437C450.201 138.431 450.442 139.536 450.402 140.649C453.116 140.119 455.887 139.945 458.646 140.129C461.429 140.337 464.021 141.627 465.865 143.722C466.749 144.785 467.272 146.102 467.357 147.482C467.441 148.862 467.084 150.234 466.337 151.397C467.582 151.045 468.914 151.163 470.077 151.73C471.241 152.297 472.155 153.272 472.646 154.47C473.085 155.696 473.165 157.022 472.877 158.292C472.589 159.562 471.945 160.724 471.02 161.641C468.714 163.574 465.801 164.634 462.792 164.633C460.076 164.674 457.384 164.119 454.906 163.007" fill="#263238"/>
<path d="M413.898 253.851C416.564 254.47 419.33 254.514 422.014 253.979C424.697 253.444 427.236 252.342 429.46 250.748C431.683 249.153 433.542 247.103 434.91 244.733C436.278 242.363 437.125 239.729 437.394 237.006C438.012 230.811 438.548 225.624 438.662 224.795C438.662 224.795 454.223 225.087 457.069 209.982C459.914 194.876 463.377 159.576 463.377 159.576C455.417 154.367 446.211 151.379 436.709 150.919C427.208 150.459 417.756 152.543 409.329 156.958L406.776 158.291L399.118 233.087C398.623 237.756 399.853 242.444 402.576 246.268C405.298 250.093 409.325 252.79 413.898 253.851Z" fill="#B78876"/>
<path d="M438.679 224.583C431.666 223.492 425.138 220.333 419.931 215.51C419.931 215.51 422.679 227.234 438.028 228.518L438.679 224.583Z" fill="#AA6550"/>
<path d="M405.85 174.372C405.606 174.21 395.98 169.494 394.468 179.884C392.955 190.275 403.736 189.64 403.801 189.331C403.866 189.023 405.85 174.372 405.85 174.372Z" fill="#B78876"/>
<path d="M401.215 184.941C401.215 184.941 401.02 185.039 400.695 185.136C400.236 185.259 399.747 185.201 399.329 184.974C398.718 184.451 398.257 183.775 397.994 183.015C397.731 182.254 397.675 181.437 397.833 180.649C397.925 179.751 398.225 178.888 398.711 178.128C398.86 177.808 399.087 177.53 399.371 177.32C399.655 177.109 399.987 176.974 400.337 176.925C400.553 176.9 400.77 176.952 400.951 177.071C401.132 177.19 401.266 177.368 401.329 177.576C401.427 177.884 401.329 178.096 401.329 178.112C401.329 178.128 401.573 177.966 401.541 177.527C401.525 177.259 401.416 177.006 401.232 176.811C400.974 176.561 400.632 176.416 400.272 176.405C399.832 176.432 399.407 176.57 399.034 176.806C398.662 177.042 398.355 177.368 398.142 177.754C397.564 178.589 397.206 179.557 397.102 180.567C396.918 181.487 397.01 182.44 397.365 183.308C397.721 184.176 398.325 184.919 399.102 185.445C399.368 185.575 399.66 185.642 399.955 185.642C400.251 185.642 400.543 185.575 400.809 185.445C401.167 185.185 401.248 184.958 401.215 184.941Z" fill="#AA6550"/>
<path d="M455.719 182.844C455.623 183.407 455.311 183.911 454.85 184.248C454.388 184.585 453.813 184.729 453.247 184.649C452.969 184.624 452.699 184.544 452.452 184.414C452.205 184.283 451.987 184.103 451.811 183.886C451.635 183.669 451.504 183.419 451.427 183.151C451.35 182.882 451.328 182.601 451.361 182.323C451.45 181.757 451.756 181.248 452.215 180.905C452.674 180.562 453.248 180.411 453.817 180.486C454.098 180.512 454.371 180.594 454.62 180.728C454.869 180.862 455.088 181.044 455.265 181.263C455.443 181.483 455.574 181.736 455.652 182.008C455.73 182.279 455.753 182.563 455.719 182.844Z" fill="#263238"/>
<path d="M456.727 180.486C456.402 180.73 454.987 179.218 452.646 178.86C450.304 178.502 448.418 179.315 448.207 178.99C447.996 178.665 448.467 178.372 449.313 177.966C450.441 177.447 451.701 177.288 452.922 177.51C454.152 177.69 455.292 178.26 456.174 179.136C456.727 179.787 456.906 180.34 456.727 180.486Z" fill="#263238"/>
<path d="M433.15 178.86C433.054 179.424 432.743 179.93 432.282 180.269C431.821 180.609 431.246 180.757 430.679 180.681C430.4 180.655 430.129 180.573 429.882 180.44C429.635 180.308 429.417 180.127 429.241 179.909C429.065 179.69 428.935 179.439 428.858 179.17C428.781 178.9 428.759 178.618 428.792 178.34C428.885 177.777 429.193 177.271 429.651 176.931C430.109 176.592 430.682 176.443 431.248 176.519C431.527 176.545 431.799 176.627 432.047 176.759C432.294 176.892 432.513 177.072 432.69 177.29C432.867 177.508 432.999 177.759 433.078 178.029C433.157 178.298 433.182 178.581 433.15 178.86Z" fill="#263238"/>
<path d="M433.768 176.86C433.459 177.104 432.028 175.608 429.703 175.234C427.378 174.86 425.459 175.689 425.264 175.364C425.069 175.039 425.524 174.762 426.353 174.356C427.483 173.823 428.751 173.658 429.979 173.884C431.182 174.077 432.292 174.647 433.15 175.51C433.768 176.21 433.931 176.762 433.768 176.86Z" fill="#263238"/>
<path d="M439.199 195.608C440.494 195.437 441.806 195.437 443.101 195.608C443.703 195.608 444.288 195.608 444.451 195.234C444.642 194.642 444.642 194.005 444.451 193.413C444.142 191.787 443.817 190.258 443.492 188.535C442.174 181.673 441.329 176.063 441.605 176.015C441.882 175.966 443.231 181.494 444.483 188.356C444.792 189.982 445.101 191.608 445.378 193.234C445.62 194.018 445.586 194.862 445.28 195.624C445.158 195.821 444.991 195.986 444.793 196.108C444.596 196.229 444.373 196.303 444.142 196.323C443.802 196.366 443.458 196.366 443.118 196.323C441.786 196.25 440.47 196.01 439.199 195.608Z" fill="#263238"/>
<path d="M432.061 196.014C432.451 196.014 432.061 198.583 433.866 200.762C435.67 202.941 438.451 203.12 438.402 203.478C438.353 203.835 437.719 203.868 436.581 203.689C435.094 203.459 433.738 202.703 432.76 201.559C431.824 200.468 431.341 199.06 431.41 197.624C431.508 196.551 431.898 195.966 432.061 196.014Z" fill="#263238"/>
<path d="M456.581 176.193C456.077 176.649 454.581 175.819 452.662 175.462C450.743 175.104 449.036 175.185 448.76 174.567C448.63 174.275 448.987 173.787 449.784 173.413C450.846 172.98 452.013 172.873 453.136 173.105C454.259 173.336 455.289 173.896 456.093 174.714C456.678 175.38 456.808 175.966 456.581 176.193Z" fill="#263238"/>
<path d="M432.223 167.917C431.914 168.161 431.329 167.917 430.597 167.657C429.69 167.287 428.754 166.988 427.801 166.763C426.834 166.587 425.856 166.484 424.874 166.454C424.077 166.454 423.459 166.454 423.248 166.047C423.036 165.641 423.41 165.104 424.337 164.584C425.587 163.983 427.001 163.817 428.356 164.112C429.711 164.407 430.929 165.145 431.817 166.21C432.516 166.99 432.516 167.706 432.223 167.917Z" fill="#263238"/>
<path d="M463.264 164.421C455.618 165.122 447.948 163.374 441.361 159.429C434.044 155.088 425.313 152.584 423.248 153.966C421.183 155.348 420.207 163.153 412.516 164.893C412.516 164.893 411.947 179.868 406.012 178.909C400.077 177.949 405.492 155.072 405.492 155.072L420.581 149.007L436.711 147.169L451.605 148.259L465.15 153.527L463.264 164.421Z" fill="#263238"/>
<path d="M132.324 588.498C119.397 568.726 121.283 540.466 136.714 522.58C141.592 517.035 148.21 512.206 155.527 512.824C162.844 513.442 169.039 519.881 171.315 527.035C173.592 534.19 172.795 541.946 171.462 549.328C169.592 559.669 166.454 570.254 159.267 577.945C152.08 585.636 141.543 593.523 132.324 588.482" fill="#606C38"/>
<path d="M139.478 683.701C137.151 677.951 136.694 671.615 138.17 665.591C139.647 659.567 142.983 654.161 147.706 650.14C150.681 647.701 154.568 645.831 158.275 646.888C161.982 647.945 164.6 651.766 165.12 655.652C165.418 659.584 164.754 663.53 163.185 667.148C161.283 672.302 158.714 677.473 154.307 680.79C149.901 684.107 143.771 687.213 139.478 683.782" fill="#606C38"/>
<path d="M108.292 676.904C109.889 668.069 108.666 658.956 104.796 650.855C100.926 642.754 94.6064 636.076 86.7308 631.766C81.8528 629.213 75.7391 627.685 70.7798 630.14C65.8205 632.595 63.2514 638.888 63.6579 644.563C64.0644 650.237 66.7798 655.473 69.7879 660.286C74.0155 667.05 79.1862 673.619 86.3894 677.018C93.5926 680.416 103.218 683.001 108.292 676.871" fill="#606C38"/>
<path d="M110.568 629.49C116.747 609.522 106.259 585.295 88.7633 573.832C83.3325 570.271 76.4545 567.799 70.3895 570.108C64.3246 572.417 60.6335 579.409 60.4222 586.043C60.2108 592.677 62.7799 599.051 65.7229 605.067C69.8204 613.408 75.0724 621.652 83.0561 626.449C91.0397 631.246 103.901 636.026 110.568 629.49Z" fill="#606C38"/>
<path d="M122.958 727.147C122.865 726.828 122.799 726.502 122.763 726.172C122.649 725.44 122.519 724.546 122.34 723.391C122.34 722.773 122.161 722.107 122.064 721.375C121.966 720.643 121.771 719.847 121.609 719.001C121.283 717.294 120.942 715.343 120.389 713.229C120.129 712.172 119.869 711.066 119.592 709.895C119.316 708.725 118.893 707.57 118.535 706.334C117.869 703.863 116.909 701.294 115.966 698.562C113.755 692.706 111.181 686.993 108.259 681.457C105.254 675.962 101.914 670.657 98.2592 665.571C96.5031 663.294 94.9096 661.067 93.2023 659.067C92.3731 658.091 91.5763 657.148 90.8121 656.221L88.4869 653.717C87.0235 652.091 85.5926 650.725 84.3569 649.506C83.739 648.904 83.1536 648.351 82.6333 647.88C82.113 647.408 81.5602 646.953 81.1049 646.53L79.0073 644.644C78.7486 644.438 78.514 644.204 78.3082 643.945C78.6011 644.101 78.8741 644.292 79.1212 644.514L81.3 646.286L82.926 647.587L84.7146 649.213C85.9829 650.4 87.4625 651.733 88.9422 653.359L91.3324 655.847L93.7714 658.66C95.5112 660.579 97.1372 662.823 98.9258 665.164C102.606 670.242 105.952 675.554 108.942 681.066C111.88 686.631 114.449 692.384 116.633 698.286C117.544 701.05 118.503 703.635 119.153 706.139C119.495 707.375 119.836 708.578 120.145 709.733C120.454 710.887 120.665 712.025 120.909 713.099C121.43 715.229 121.722 717.196 122.015 718.92C122.145 719.765 122.275 720.546 122.405 721.31C122.535 722.074 122.552 722.725 122.617 723.342C122.714 724.497 122.796 725.424 122.861 726.155C122.932 726.481 122.965 726.814 122.958 727.147Z" fill="#263238"/>
<path d="M122.503 730.724C122.481 730.595 122.481 730.463 122.503 730.334C122.503 730.025 122.503 729.635 122.6 729.18C122.698 728.09 122.828 726.611 123.007 724.741C123.104 723.765 123.202 722.692 123.316 721.489C123.43 720.285 123.446 719.033 123.511 717.668C123.609 714.92 123.869 711.798 123.787 708.334C123.787 706.611 123.787 704.79 123.787 702.904C123.787 701.017 123.592 699.066 123.495 697.034C123.365 692.969 122.812 688.66 122.308 684.123C120.983 674.301 118.939 664.59 116.194 655.067C113.303 645.603 109.721 636.364 105.479 627.425C103.414 623.343 101.527 619.425 99.4299 615.945C98.4055 614.189 97.495 612.449 96.4706 610.856L93.5438 606.303C91.7389 603.344 89.8202 600.872 88.2268 598.628C87.43 597.522 86.6983 596.466 85.9829 595.522L83.9829 593.018L81.2187 589.523L80.487 588.612C80.3244 588.401 80.2431 588.287 80.2594 588.271L80.552 588.547C80.7472 588.791 81.0073 589.067 81.3163 589.425L84.1943 592.823L86.2756 595.295C87.0073 596.222 87.7552 597.262 88.5845 598.368C90.2105 600.596 92.1617 603.051 94.0153 605.994C94.9584 607.441 95.9665 608.953 97.0072 610.53C98.0478 612.108 98.9584 613.782 100.015 615.62C102.145 619.099 104.064 623.018 106.162 627.099C110.463 636.079 114.072 645.374 116.958 654.904C119.73 664.464 121.769 674.221 123.056 684.091C123.527 688.66 124.048 692.985 124.161 697.099C124.161 699.131 124.405 701.099 124.405 703.001C124.405 704.903 124.405 706.708 124.405 708.432C124.405 711.912 124.161 715.033 124.015 717.781C123.917 719.163 123.869 720.448 123.755 721.619C123.641 722.789 123.478 723.846 123.365 724.871C123.121 726.741 122.942 728.22 122.796 729.293C122.796 729.765 122.665 730.139 122.633 730.448C122.6 730.757 122.519 730.741 122.503 730.724Z" fill="#263238"/>
<path d="M156.177 536.71C156.133 536.841 156.073 536.967 155.998 537.084L155.446 538.125L153.234 542.076C152.763 542.921 152.194 543.865 151.608 544.921L149.885 548.401C149.251 549.653 148.6 550.986 147.885 552.385C147.169 553.783 146.568 555.36 145.868 556.97C145.169 558.58 144.389 560.222 143.673 562.027C142.958 563.832 142.275 565.669 141.527 567.588C141.153 568.547 140.779 569.523 140.405 570.531C140.031 571.539 139.706 572.563 139.364 573.604C138.649 575.685 137.934 577.832 137.186 580.108C134.454 588.97 131.852 598.84 129.657 609.376C127.462 619.913 126.048 629.977 124.942 639.197C123.836 648.416 123.316 656.758 123.121 663.782C122.942 667.278 122.909 670.465 122.893 673.245C122.877 676.026 122.893 678.432 122.893 680.4C122.893 682.367 122.893 683.814 122.893 684.92V686.107C122.918 686.236 122.918 686.368 122.893 686.497C122.883 686.367 122.883 686.237 122.893 686.107C122.893 685.798 122.893 685.408 122.893 684.936C122.893 683.831 122.763 682.318 122.665 680.416C122.568 678.514 122.519 676.042 122.519 673.245C122.519 670.449 122.519 667.278 122.617 663.766C122.73 656.725 123.365 648.368 124.243 639.116C125.121 629.864 126.763 619.734 128.893 609.213C131.023 598.693 133.771 588.807 136.519 579.945L138.714 573.523C139.072 572.482 139.43 571.441 139.787 570.433C140.145 569.425 140.551 568.466 140.942 567.507C141.69 565.572 142.438 563.718 143.137 561.929C143.836 560.141 144.665 558.498 145.381 556.889C146.096 555.279 146.779 553.751 147.462 552.32L149.527 548.352L151.218 544.71C151.803 543.653 152.389 542.743 152.844 541.897L155.185 538.011C155.446 537.621 155.657 537.295 155.82 537.019C155.926 536.902 156.046 536.798 156.177 536.71Z" fill="#263238"/>
<path d="M151.771 658.075C151.383 658.913 150.926 659.718 150.405 660.481C149.462 661.993 148.161 664.237 146.633 666.985C145.104 669.733 143.381 673.18 141.755 677.034C139.955 681.227 138.371 685.509 137.007 689.863C135.696 694.227 134.61 698.656 133.755 703.131C132.974 707.277 132.438 711.034 132.129 714.204C131.82 717.375 131.625 719.944 131.543 721.733C131.551 722.659 131.475 723.584 131.316 724.497C131.221 723.573 131.189 722.644 131.218 721.716C131.218 719.928 131.218 717.342 131.527 714.155C131.828 710.415 132.316 706.692 132.991 703.001C134.636 693.942 137.365 685.115 141.121 676.709C142.647 673.286 144.345 669.943 146.21 666.692C147.836 663.912 149.185 661.717 150.226 660.188C150.686 659.445 151.202 658.739 151.771 658.075Z" fill="#263238"/>
<path d="M97.5763 718.237H154.372L147.494 776.252H104.649L97.5763 718.237Z" fill="#455A64"/>
<path d="M99.6413 769.992L104.47 776.252H147.494L152.454 770.187L99.6413 769.992Z" fill="#263238"/>
<path d="M152.161 735.293C152.161 735.537 140.373 735.733 125.836 735.733C111.3 735.733 99.5112 735.537 99.5112 735.293C99.5112 735.05 111.283 734.871 125.836 734.871C140.389 734.871 152.161 735.066 152.161 735.293Z" fill="#FAFAFA"/>
<path d="M152.161 739.163C152.161 739.391 140.373 739.586 125.836 739.586C111.3 739.586 99.5112 739.391 99.5112 739.163C99.5112 738.936 111.283 738.741 125.836 738.741C140.389 738.741 152.161 738.936 152.161 739.163Z" fill="#FAFAFA"/>
<path d="M151.446 742.903C151.446 743.131 140.064 743.326 126.048 743.326C112.031 743.326 100.633 743.131 100.633 742.903C100.633 742.675 112.015 742.48 126.048 742.48C140.08 742.48 151.446 742.675 151.446 742.903Z" fill="#FAFAFA"/>
<path d="M710.107 733.765C715.093 731.416 720.702 730.732 726.107 731.814C729.058 732.083 731.838 733.324 734.009 735.342C735.976 737.521 736.35 741.358 734.09 743.228C732.625 744.221 730.859 744.67 729.098 744.497C724.871 744.497 720.172 743.7 716.806 746.253C714.871 747.7 713.554 750.106 711.277 750.822C710.126 751.092 708.917 750.978 707.837 750.496C706.756 750.014 705.863 749.192 705.294 748.155C704.192 746.041 703.947 743.583 704.611 741.293C704.883 739.699 705.521 738.19 706.475 736.884C707.428 735.578 708.672 734.51 710.107 733.765Z" fill="#606C38"/>
<path d="M698.952 712.188C701.928 716.432 707.716 715.034 710.334 712.432C712.952 709.83 714.155 706.074 715.212 702.497C717.57 694.367 719.944 685.717 718.188 677.375C717.751 674.839 716.627 672.471 714.936 670.53C714.081 669.578 712.992 668.865 711.777 668.463C710.562 668.061 709.263 667.983 708.009 668.237C705.099 669.001 703.294 671.863 701.977 674.579C698.118 682.601 696.096 691.383 696.058 700.286C696.058 704.432 696.53 708.773 698.871 712.188" fill="#606C38"/>
<path d="M690.774 718.334C692.304 716.338 693.323 713.999 693.742 711.519C694.162 709.039 693.969 706.495 693.18 704.107C691.555 699.331 688.64 695.099 684.757 691.879C680.356 687.955 675.23 684.929 669.668 682.969C667.511 682.103 665.194 681.709 662.871 681.814C661.715 681.885 660.592 682.236 659.601 682.836C658.61 683.437 657.779 684.269 657.18 685.261C655.554 688.286 657.18 691.961 658.806 695.017C661.716 700.297 665.032 705.342 668.725 710.107C671.701 713.944 675.099 717.716 679.619 719.456C684.14 721.196 688.855 720.985 691.261 717.83" fill="#606C38"/>
<path d="M698.741 776.35C698.905 775.717 698.998 775.068 699.017 774.415C699.147 773.017 699.326 771.244 699.538 769.147C699.749 767.049 700.107 764.269 700.708 761.423C701.401 758.307 702.342 755.251 703.521 752.285C704.684 749.333 706.255 746.558 708.188 744.041C709.763 741.998 711.774 740.331 714.074 739.163C715.613 738.405 717.258 737.884 718.952 737.619C719.601 737.609 720.246 737.516 720.871 737.342C720.222 737.275 719.568 737.275 718.92 737.342C717.131 737.488 715.381 737.945 713.749 738.692C711.332 739.82 709.206 741.489 707.538 743.57C705.501 746.118 703.857 748.957 702.66 751.992C701.462 754.995 700.526 758.096 699.863 761.261C699.365 763.85 699.023 766.467 698.839 769.098C698.676 771.326 698.611 773.147 698.578 774.399C698.566 775.053 698.62 775.707 698.741 776.35Z" fill="#263238"/>
<path d="M699.18 772.35C699.212 772.053 699.212 771.753 699.18 771.456V768.903C699.18 766.675 699.18 763.456 699.294 759.488C699.489 751.537 700.172 742.984 701.489 730.919C702.741 719.537 704.416 706.383 706.188 697.798C706.578 695.847 706.952 694.091 707.326 692.562C707.7 691.034 707.96 689.684 708.237 688.611C708.513 687.538 708.676 686.774 708.838 686.123C708.919 685.836 708.973 685.542 709.001 685.245C708.85 685.503 708.74 685.783 708.676 686.074L707.944 688.53C707.603 689.603 707.277 690.92 706.887 692.448C706.497 693.977 706.058 695.7 705.652 697.684C703.449 707.832 701.794 718.09 700.692 728.415C699.375 740.497 698.774 751.505 698.725 759.472C698.725 763.456 698.725 766.675 698.855 768.903C698.855 769.943 698.985 770.789 699.017 771.472C699.031 771.771 699.086 772.066 699.18 772.35Z" fill="#263238"/>
<path d="M699.18 751.066C699.248 750.178 699.248 749.287 699.18 748.399C699.082 746.675 698.839 744.188 698.367 741.147C697.778 737.582 696.985 734.053 695.993 730.578C694.849 726.302 693.376 722.122 691.587 718.074C688.505 710.607 684.098 703.76 678.579 697.863C677.624 696.853 676.603 695.908 675.522 695.034C675.05 694.627 674.644 694.237 674.221 693.928L673.034 693.115C672.32 692.574 671.564 692.09 670.774 691.668C673.372 693.71 675.843 695.909 678.172 698.253C683.495 704.201 687.772 711.007 690.822 718.383C692.568 722.413 694.051 726.551 695.261 730.773C696.274 734.219 697.11 737.714 697.765 741.245C698.318 744.253 698.643 746.708 698.839 748.415C698.891 749.306 699.005 750.191 699.18 751.066Z" fill="#263238"/>
<path d="M222.762 346.338L225.916 350.354C225.916 350.354 241.526 325.363 259.64 322.794C260.152 323.034 260.714 323.15 261.279 323.13C261.845 323.11 262.398 322.956 262.892 322.68L268.745 319.281C269.353 318.906 269.834 318.356 270.124 317.704C270.414 317.051 270.501 316.326 270.371 315.623C270.371 315.623 279.103 300.127 297.721 297.737L304.517 296.452L257.802 253.656L185.071 283.233L222.762 346.338Z" fill="#606C38"/>
<path d="M215.006 342.988L220.518 350.354C220.518 350.354 233.217 321.72 264.81 319.704L233.721 287.574C233.721 287.574 211.282 334.159 215.006 342.988Z" fill="#EBEBEB"/>
<path d="M172.437 291.542C172.437 291.542 184.486 252.664 224.469 266.875L264.875 319.704C264.875 319.704 223.429 312.192 213.689 346.338L172.437 291.542Z" fill="#F5F5F5"/>
<path d="M264.81 319.704C264.81 319.704 277.298 289.168 304.566 292.924L264.81 246.713L225.786 268.696L264.81 319.704Z" fill="#EBEBEB"/>
<path d="M224.388 266.94C224.388 266.94 219.851 243.851 237.689 233.786L249.38 227.705L290.274 273.493C290.274 273.493 262.03 288.924 264.794 319.769L224.388 266.94Z" fill="#F5F5F5"/>
<path d="M264.81 319.704C264.206 319.097 263.661 318.433 263.184 317.72C262.046 316.289 260.583 314.468 258.794 312.127C255.054 307.249 250.03 300.745 244.485 293.591L230.128 275.07L225.754 269.477C225.184 268.818 224.672 268.111 224.225 267.363C224.862 267.958 225.459 268.594 226.014 269.266C227.12 270.518 228.681 272.388 230.599 274.696C234.42 279.314 239.575 285.818 245.152 293.07C250.729 300.322 255.721 306.94 259.282 311.769L263.445 317.525C263.958 318.213 264.415 318.942 264.81 319.704Z" fill="#263238"/>
<path d="M250.274 241.168C248.67 241.797 247.106 242.525 245.591 243.347C242.061 245.537 238.995 248.399 236.567 251.77C234.061 255.092 232.253 258.886 231.25 262.924C230.551 266.03 230.648 268.046 230.469 268.046C230.362 267.583 230.318 267.107 230.339 266.631C230.304 265.344 230.413 264.057 230.664 262.794C231.521 258.609 233.304 254.67 235.884 251.266C238.367 247.798 241.58 244.917 245.298 242.827C246.429 242.204 247.63 241.718 248.876 241.38C249.328 241.239 249.8 241.168 250.274 241.168Z" fill="#263238"/>
<path d="M270.42 260.485C270.42 260.648 268.583 261.477 265.884 263.428C264.317 264.567 262.854 265.84 261.51 267.233C259.87 268.954 258.405 270.833 257.136 272.843C255.903 274.869 254.868 277.009 254.046 279.233C253.399 281.058 252.909 282.934 252.583 284.843C252.03 288.095 252.111 290.208 251.949 290.208C251.828 289.73 251.773 289.238 251.786 288.745C251.754 288.176 251.754 287.606 251.786 287.038C251.795 286.276 251.855 285.515 251.965 284.761C252.218 282.793 252.664 280.854 253.298 278.973C254.108 276.704 255.149 274.525 256.404 272.469C257.705 270.417 259.22 268.509 260.924 266.778C262.329 265.376 263.871 264.118 265.526 263.022C266.155 262.592 266.806 262.196 267.477 261.835C267.999 261.54 268.543 261.285 269.103 261.071C269.511 260.813 269.955 260.616 270.42 260.485Z" fill="#263238"/>
<path d="M276.94 265.997C276.94 266.16 274.924 267.07 272.062 269.249C270.371 270.519 268.783 271.922 267.314 273.444C265.535 275.326 263.904 277.343 262.436 279.477C261.017 281.637 259.777 283.91 258.729 286.274C257.894 288.214 257.241 290.228 256.778 292.29C255.997 295.802 256.111 298.078 255.949 298.078C255.813 297.548 255.763 296.999 255.802 296.452C255.757 295.83 255.757 295.205 255.802 294.582C255.849 293.757 255.958 292.936 256.128 292.127C256.514 290.005 257.118 287.929 257.932 285.932C258.963 283.497 260.215 281.162 261.672 278.957C263.154 276.777 264.825 274.731 266.664 272.843C268.167 271.327 269.799 269.945 271.542 268.713C272.216 268.235 272.917 267.796 273.64 267.396C274.162 267.073 274.705 266.785 275.266 266.534C275.797 266.28 276.36 266.1 276.94 265.997Z" fill="#263238"/>
<path d="M281.022 271.233C281.022 271.379 279.005 272.29 276.144 274.485C274.475 275.794 272.919 277.241 271.493 278.81C269.77 280.755 268.209 282.838 266.827 285.038C265.47 287.253 264.296 289.575 263.314 291.981C262.539 293.954 261.93 295.988 261.493 298.062C260.762 301.607 260.875 303.883 260.697 303.883C260.585 303.349 260.541 302.802 260.567 302.257C260.512 301.635 260.512 301.009 260.567 300.387C260.602 299.557 260.7 298.731 260.859 297.916C261.2 295.782 261.745 293.686 262.485 291.656C263.451 289.191 264.626 286.814 265.997 284.55C267.432 282.311 269.064 280.205 270.875 278.257C272.355 276.673 273.989 275.24 275.753 273.981C276.412 273.475 277.108 273.018 277.835 272.615C278.353 272.281 278.897 271.988 279.461 271.737C279.95 271.484 280.477 271.314 281.022 271.233Z" fill="#263238"/>
<path d="M247.282 311.168C247.282 311.314 245.022 310.533 241.298 310.208C236.455 309.805 231.584 310.534 227.071 312.338C222.585 314.211 218.602 317.113 215.445 320.81C213.022 323.655 211.982 325.688 211.835 325.688C211.974 325.151 212.199 324.64 212.502 324.176C213.211 322.857 214.039 321.605 214.973 320.436C218.066 316.511 222.122 313.452 226.746 311.558C231.37 309.663 236.406 308.997 241.363 309.623C242.851 309.801 244.321 310.111 245.754 310.55C246.291 310.678 246.806 310.886 247.282 311.168Z" fill="#263238"/>
<path d="M241.933 304.501C241.933 304.647 239.672 303.867 235.949 303.542C231.102 303.097 226.219 303.828 221.715 305.674C217.212 307.519 213.22 310.425 210.079 314.143C207.656 316.989 206.616 319.103 206.486 319.021C206.624 318.484 206.85 317.974 207.152 317.509C207.862 316.19 208.689 314.939 209.624 313.769C212.717 309.844 216.772 306.786 221.397 304.891C226.021 302.997 231.056 302.33 236.014 302.956C237.502 303.134 238.971 303.445 240.404 303.883C240.942 304.011 241.457 304.22 241.933 304.501Z" fill="#263238"/>
<path d="M236.583 297.818C236.583 297.981 234.323 297.2 230.599 296.875C225.752 296.43 220.87 297.161 216.366 299.007C211.862 300.853 207.87 303.758 204.73 307.477C202.307 310.322 201.266 312.355 201.136 312.355C201.269 311.818 201.489 311.308 201.787 310.842C202.502 309.519 203.335 308.261 204.274 307.086C207.371 303.167 211.428 300.113 216.051 298.222C220.675 296.33 225.708 295.665 230.664 296.29C232.152 296.468 233.622 296.778 235.055 297.216C235.59 297.345 236.104 297.547 236.583 297.818Z" fill="#263238"/>
<path d="M231.233 291.152C231.233 291.314 228.957 290.534 225.25 290.208C220.403 289.759 215.519 290.489 211.014 292.335C206.51 294.181 202.518 297.088 199.38 300.81C196.957 303.656 195.917 305.688 195.77 305.688C195.93 305.164 196.154 304.661 196.437 304.192C197.146 302.865 197.979 301.607 198.925 300.436C202.02 296.519 206.074 293.467 210.694 291.576C215.315 289.684 220.345 289.017 225.299 289.639C226.793 289.81 228.268 290.12 229.705 290.566C230.239 290.689 230.754 290.886 231.233 291.152Z" fill="#263238"/>
<path d="M225.868 284.55C225.868 284.713 223.608 283.932 219.884 283.607C215.039 283.16 210.159 283.891 205.657 285.737C201.156 287.583 197.167 290.489 194.031 294.208C191.608 297.038 190.567 299.086 190.421 299.086C190.571 298.559 190.796 298.055 191.088 297.591C191.796 296.266 192.623 295.009 193.559 293.834C196.647 289.899 200.699 286.827 205.322 284.916C209.945 283.005 214.983 282.318 219.949 282.924C221.438 283.106 222.907 283.422 224.339 283.867C224.884 284.007 225.4 284.238 225.868 284.55Z" fill="#263238"/>
<path d="M220.518 277.818C220.518 277.965 218.258 277.2 214.534 276.875C209.679 276.418 204.786 277.144 200.272 278.99C195.758 280.836 191.759 283.748 188.616 287.477C186.193 290.306 185.153 292.355 185.006 292.355C185.148 291.819 185.373 291.309 185.673 290.843C186.386 289.526 187.213 288.275 188.144 287.103C191.245 283.16 195.315 280.088 199.958 278.19C204.601 276.292 209.657 275.632 214.632 276.274C216.121 276.456 217.59 276.771 219.022 277.217C219.549 277.339 220.053 277.542 220.518 277.818Z" fill="#263238"/>
<path d="M235.38 269.64L246.534 282.03C246.534 282.03 250.014 264.892 265.184 258.388L253.396 245.819C248.531 247.806 244.291 251.067 241.121 255.258C237.951 259.45 235.968 264.417 235.38 269.64Z" fill="#EBEBEB"/>
<path d="M275.444 144.324L273.818 147.95C273.818 147.95 296.729 149.82 305.005 161.462C305.013 161.914 305.133 162.357 305.354 162.752C305.576 163.146 305.891 163.48 306.273 163.722L310.729 166.567C311.206 166.859 311.76 166.997 312.318 166.965C312.875 166.933 313.41 166.732 313.851 166.389C318.239 166.756 322.496 168.067 326.33 170.234C330.164 172.401 333.484 175.371 336.062 178.941L339.395 183.185L354.175 133.852L305.688 95.6251L275.444 144.324Z" fill="#606C38"/>
<path d="M275.005 137.771L271.867 144.275C271.867 144.275 296.257 142.828 308.973 163.998L320.127 130.942C320.127 130.942 279.786 132.031 275.005 137.771Z" fill="#EBEBEB"/>
<path d="M295.428 89.8527C295.428 89.8527 326.696 84.2756 331.2 117.039L308.94 163.966C308.94 163.966 299.298 132.617 272.176 138.064L295.428 89.8527Z" fill="#F5F5F5"/>
<path d="M308.94 163.966C308.94 163.966 334.598 161.689 341.753 181.852L359.639 137.738L330.371 118.698L308.94 163.966Z" fill="#EBEBEB"/>
<path d="M331.086 117.072C331.086 117.072 345.476 105.69 358.842 114.422L367.232 120.324L350.143 165.055C350.143 165.055 329.33 151.023 308.94 163.982L331.086 117.072Z" fill="#F5F5F5"/>
<path d="M308.94 163.966C309.122 163.307 309.373 162.67 309.688 162.063C310.29 160.714 311.054 159.023 311.964 157.023L319.672 140.438L327.395 123.869L329.72 118.844C329.971 118.208 330.293 117.603 330.68 117.039C330.531 117.705 330.313 118.354 330.029 118.974C329.574 120.21 328.842 121.95 327.932 124.113C326.111 128.421 323.46 134.324 320.436 140.795C317.411 147.267 314.599 153.088 312.501 157.283C311.46 159.364 310.599 161.055 309.981 162.161C309.711 162.804 309.361 163.41 308.94 163.966Z" fill="#263238"/>
<path d="M358.809 124.812C358.712 124.926 357.444 123.934 355.118 122.779C349.061 119.765 342.079 119.183 335.606 121.153C333.151 121.917 331.72 122.779 331.655 122.568C331.59 122.356 331.948 122.291 332.582 121.901C333.485 121.38 334.431 120.939 335.411 120.584C338.668 119.386 342.148 118.914 345.606 119.202C349.065 119.473 352.425 120.482 355.46 122.161C356.372 122.669 357.237 123.257 358.045 123.917C358.549 124.487 358.842 124.763 358.809 124.812Z" fill="#263238"/>
<path d="M357.509 130.21C357.411 130.324 356.127 129.332 353.818 128.178C347.76 125.163 340.779 124.582 334.306 126.552C331.834 127.316 330.419 128.178 330.338 127.966C330.257 127.755 330.647 127.69 331.281 127.3C332.182 126.775 333.129 126.334 334.11 125.982C337.367 124.782 340.847 124.31 344.306 124.6C347.759 124.869 351.114 125.878 354.143 127.56C355.057 128.063 355.923 128.651 356.728 129.316C357.248 129.885 357.541 130.161 357.509 130.21Z" fill="#263238"/>
<path d="M355.07 135.576C354.988 135.706 353.704 134.698 351.395 133.543C348.373 132.07 345.103 131.172 341.753 130.893C338.401 130.634 335.03 131.009 331.818 131.999C329.363 132.779 327.932 133.625 327.867 133.43C327.802 133.234 328.176 133.137 328.81 132.763C329.706 132.225 330.654 131.778 331.639 131.43C334.894 130.246 338.365 129.774 341.818 130.047C345.279 130.313 348.641 131.328 351.671 133.023C352.587 133.525 353.452 134.113 354.257 134.779C354.826 135.251 355.118 135.527 355.07 135.576Z" fill="#263238"/>
<path d="M353.557 140.942C353.46 141.072 352.175 140.064 349.866 138.909C343.809 135.895 336.827 135.313 330.354 137.283C327.883 138.064 326.468 138.909 326.387 138.714C326.306 138.519 326.696 138.421 327.33 138.047C328.226 137.51 329.174 137.063 330.159 136.714C333.42 135.529 336.896 135.057 340.354 135.332C343.811 135.597 347.168 136.613 350.192 138.308C351.11 138.806 351.976 139.394 352.777 140.064C353.297 140.616 353.59 140.893 353.557 140.942Z" fill="#263238"/>
<path d="M352.029 146.649C351.948 146.763 350.663 145.771 348.354 144.616C345.333 143.141 342.063 142.242 338.712 141.966C335.366 141.706 332 142.081 328.793 143.072C326.322 143.836 324.907 144.698 324.826 144.486C324.745 144.275 325.135 144.21 325.769 143.82C326.67 143.295 327.617 142.854 328.598 142.503C331.859 141.317 335.335 140.846 338.793 141.121C342.222 141.397 345.55 142.412 348.549 144.096C349.496 144.589 350.389 145.178 351.216 145.852C351.785 146.34 352.078 146.6 352.029 146.649Z" fill="#263238"/>
<path d="M350.549 153.137C350.452 153.267 349.07 152.177 346.533 150.974C345.048 150.264 343.509 149.671 341.932 149.202C339.997 148.658 338.024 148.261 336.029 148.015C334.026 147.799 332.008 147.75 329.997 147.868C328.351 147.984 326.719 148.245 325.119 148.649C322.403 149.348 320.859 150.275 320.777 150.08C321.085 149.793 321.436 149.558 321.818 149.381C322.238 149.131 322.678 148.919 323.135 148.746C323.725 148.481 324.334 148.258 324.956 148.08C326.545 147.586 328.179 147.254 329.834 147.088C331.892 146.93 333.96 146.957 336.013 147.169C338.063 147.418 340.087 147.848 342.062 148.454C343.665 148.969 345.216 149.633 346.696 150.438C347.26 150.73 347.803 151.062 348.322 151.429C348.735 151.684 349.127 151.972 349.492 152.291C350.273 152.844 350.582 153.104 350.549 153.137Z" fill="#263238"/>
<path d="M348.387 157.836C348.289 157.966 346.907 156.86 344.338 155.706C342.829 155.039 341.268 154.495 339.671 154.08C337.711 153.595 335.716 153.264 333.704 153.088C331.691 152.924 329.668 152.924 327.655 153.088C326.007 153.246 324.375 153.545 322.777 153.982C320.062 154.714 318.517 155.608 318.436 155.446C318.355 155.283 318.777 155.153 319.476 154.746C319.899 154.497 320.339 154.28 320.794 154.096C321.386 153.826 321.994 153.593 322.615 153.397C324.203 152.881 325.836 152.516 327.493 152.307C329.55 152.08 331.624 152.042 333.688 152.194C335.755 152.366 337.802 152.73 339.802 153.283C341.432 153.746 343.012 154.373 344.517 155.153C345.078 155.44 345.621 155.76 346.143 156.112C346.561 156.367 346.958 156.655 347.33 156.974C348.11 157.494 348.436 157.803 348.387 157.836Z" fill="#263238"/>
<path d="M308.631 148.763C308.485 148.763 308.192 146.974 307.086 144.291C305.636 140.817 303.412 137.719 300.582 135.234C297.686 132.803 294.262 131.083 290.582 130.21C287.753 129.527 285.932 129.527 285.932 129.381C286.35 129.265 286.785 129.226 287.217 129.267C288.39 129.279 289.561 129.399 290.713 129.625C294.556 130.352 298.143 132.068 301.122 134.602C304.102 137.137 306.37 140.403 307.704 144.08C308.116 145.18 308.416 146.318 308.599 147.478C308.684 147.901 308.695 148.336 308.631 148.763Z" fill="#263238"/>
<path d="M311.33 142.665C311.184 142.665 310.907 140.877 309.786 138.194C308.349 134.695 306.097 131.591 303.218 129.139C300.339 126.686 296.915 124.958 293.233 124.096C290.404 123.43 288.566 123.43 288.566 123.283C288.984 123.167 289.419 123.129 289.851 123.169C291.024 123.183 292.193 123.297 293.347 123.511C297.192 124.24 300.78 125.958 303.76 128.495C306.739 131.033 309.006 134.302 310.338 137.982C310.747 139.084 311.051 140.222 311.249 141.381C311.358 141.8 311.385 142.236 311.33 142.665Z" fill="#263238"/>
<path d="M314.046 136.584C313.899 136.584 313.607 134.795 312.42 132.112C310.991 128.619 308.751 125.516 305.883 123.061C303.016 120.607 299.604 118.871 295.932 117.999C293.103 117.332 291.265 117.332 291.282 117.186C291.699 117.07 292.135 117.031 292.566 117.072C293.739 117.085 294.909 117.2 296.062 117.413C299.904 118.149 303.49 119.869 306.468 122.405C309.438 124.95 311.706 128.214 313.054 131.885C313.458 132.987 313.758 134.125 313.948 135.283C314.058 135.708 314.091 136.148 314.046 136.584Z" fill="#263238"/>
<path d="M316.745 130.47C316.598 130.47 316.322 128.682 315.119 125.999C313.682 122.498 311.428 119.391 308.546 116.939C305.663 114.486 302.236 112.759 298.55 111.901C295.737 111.235 293.9 111.235 293.9 111.088C294.317 110.972 294.752 110.934 295.184 110.974C296.357 110.98 297.528 111.094 298.68 111.316C302.528 112.037 306.12 113.753 309.101 116.291C312.082 118.83 314.347 122.103 315.672 125.787C316.077 126.885 316.382 128.017 316.582 129.169C316.718 129.589 316.774 130.03 316.745 130.47Z" fill="#263238"/>
<path d="M319.46 124.373C319.314 124.373 319.021 122.584 317.834 119.901C316.398 116.403 314.146 113.298 311.267 110.846C308.387 108.394 304.964 106.665 301.282 105.804C298.452 105.137 296.615 105.137 296.631 104.991C297.049 104.875 297.484 104.836 297.916 104.877C299.09 104.874 300.261 104.988 301.412 105.218C305.257 105.946 308.847 107.663 311.826 110.201C314.806 112.739 317.073 116.009 318.403 119.69C318.798 120.79 319.097 121.921 319.298 123.072C319.427 123.493 319.482 123.933 319.46 124.373Z" fill="#263238"/>
<path d="M322.159 118.259C322.013 118.259 321.737 116.487 320.615 113.804C319.179 110.305 316.928 107.199 314.048 104.747C311.169 102.295 307.745 100.567 304.062 99.7063C301.233 99.0234 299.412 99.0397 299.412 98.8933C299.829 98.7772 300.265 98.7386 300.696 98.7795C301.87 98.7764 303.041 98.8908 304.192 99.121C308.038 99.8486 311.627 101.566 314.607 104.104C317.586 106.641 319.853 109.912 321.184 113.592C321.594 114.687 321.893 115.82 322.078 116.974C322.181 117.395 322.208 117.829 322.159 118.259Z" fill="#263238"/>
<path d="M576.092 298.696L573.36 303.021C573.36 303.021 602.108 309.412 610.579 325.639C610.515 326.217 610.592 326.802 610.805 327.343C611.017 327.884 611.358 328.365 611.799 328.745L616.953 333.135C617.505 333.588 618.183 333.861 618.894 333.919C619.606 333.978 620.319 333.817 620.937 333.46C620.937 333.46 638.449 336.533 646.953 353.281L650.4 359.346L677.847 299.184L623.083 242.274L576.092 298.696Z" fill="#606C38"/>
<path d="M576.693 290.322L571.572 297.981C571.572 297.981 602.807 300.42 615.23 329.525L635.164 289.509C635.164 289.509 583.734 283.867 576.693 290.322Z" fill="#EBEBEB"/>
<path d="M611.018 233.055C611.018 233.055 651.668 231.429 651.668 273.835L615.311 329.525C615.311 329.525 608.547 288.03 573.181 290.208L611.018 233.055Z" fill="#F5F5F5"/>
<path d="M615.23 329.525C615.23 329.525 648.189 331.151 653.717 358.094L684.058 305.216L650.4 275.753L615.23 329.525Z" fill="#EBEBEB"/>
<path d="M651.522 273.867C651.522 273.867 671.782 261.884 687.213 275.363L696.839 284.355L667.294 338.208C667.294 338.208 643.327 316.729 615.165 329.606L651.522 273.867Z" fill="#F5F5F5"/>
<path d="M615.23 329.525C615.595 328.734 616.03 327.978 616.53 327.265L620.335 321.281C623.685 316.127 628.14 309.233 633.067 301.607L645.75 281.9L649.555 275.916C649.987 275.16 650.482 274.442 651.034 273.77C650.704 274.571 650.307 275.344 649.847 276.079C649.034 277.558 647.798 279.639 646.254 282.225C643.164 287.363 638.758 294.387 633.782 302.062C628.807 309.737 624.221 316.696 620.774 321.574L616.742 327.428C616.297 328.168 615.792 328.87 615.23 329.525Z" fill="#263238"/>
<path d="M685.359 288.55C685.245 288.664 683.814 287.152 681.083 285.298C679.485 284.197 677.792 283.239 676.026 282.436C673.86 281.473 671.605 280.721 669.294 280.192C666.973 279.702 664.61 279.435 662.237 279.396C660.297 279.389 658.36 279.552 656.449 279.883C653.197 280.452 651.246 281.233 651.197 281.07C651.6 280.791 652.044 280.577 652.514 280.436C653.044 280.213 653.587 280.023 654.14 279.867C654.861 279.638 655.594 279.448 656.335 279.298C658.275 278.875 660.252 278.646 662.237 278.615C664.669 278.613 667.094 278.864 669.473 279.363C671.848 279.902 674.159 280.692 676.367 281.721C678.154 282.585 679.852 283.62 681.44 284.81C682.123 285.298 682.676 285.818 683.196 286.257C683.631 286.629 684.038 287.031 684.416 287.46C684.778 287.779 685.096 288.146 685.359 288.55Z" fill="#263238"/>
<path d="M682.757 295.184C682.627 295.298 681.131 293.786 678.481 291.932C676.883 290.831 675.191 289.873 673.424 289.07C669.094 287.097 664.394 286.067 659.636 286.046C657.696 286.034 655.759 286.191 653.847 286.517C650.595 287.087 648.644 287.867 648.579 287.721C648.987 287.441 649.437 287.227 649.912 287.087C650.435 286.846 650.979 286.655 651.538 286.517C652.263 286.277 653.001 286.082 653.75 285.932C655.69 285.515 657.667 285.292 659.652 285.265C662.083 285.25 664.509 285.495 666.888 285.997C669.258 286.544 671.563 287.339 673.766 288.371C675.559 289.217 677.259 290.247 678.839 291.444C679.452 291.898 680.038 292.387 680.595 292.908C681.037 293.271 681.45 293.668 681.831 294.095C682.189 294.413 682.501 294.779 682.757 295.184Z" fill="#263238"/>
<path d="M678.725 301.574C678.611 301.688 677.18 300.176 674.449 298.322C672.847 297.227 671.155 296.27 669.392 295.46C667.223 294.504 664.969 293.753 662.66 293.217C660.338 292.731 657.975 292.47 655.603 292.436C653.664 292.433 651.728 292.591 649.815 292.908C646.563 293.493 644.611 294.257 644.563 294.111C644.968 293.836 645.412 293.623 645.88 293.477C646.407 293.247 646.95 293.057 647.506 292.908C648.226 292.673 648.959 292.478 649.701 292.322C651.642 291.907 653.619 291.683 655.603 291.656C658.034 291.647 660.459 291.892 662.839 292.387C665.213 292.939 667.523 293.734 669.733 294.761C671.522 295.622 673.221 296.657 674.806 297.851C675.423 298.294 676.009 298.778 676.562 299.298C677 299.665 677.413 300.062 677.798 300.485C678.432 301.135 678.774 301.525 678.725 301.574Z" fill="#263238"/>
<path d="M617.441 310.159C617.295 310.159 617.278 307.818 616.352 304.208C615.16 299.488 612.845 295.125 609.603 291.493C606.361 287.86 602.289 285.065 597.734 283.347C594.254 282.013 591.913 281.721 591.945 281.574C592.49 281.534 593.037 281.573 593.571 281.688C595.052 281.93 596.509 282.294 597.929 282.778C602.663 284.383 606.901 287.188 610.229 290.918C613.557 294.648 615.863 299.176 616.921 304.062C617.258 305.525 617.454 307.017 617.506 308.517C617.575 309.064 617.553 309.619 617.441 310.159Z" fill="#263238"/>
<path d="M621.945 302.891C621.799 302.891 621.782 300.55 620.856 296.94C619.664 292.222 617.351 287.861 614.112 284.229C610.874 280.597 606.806 277.801 602.254 276.079C598.758 274.745 596.417 274.453 596.449 274.306C596.994 274.266 597.542 274.304 598.075 274.42C599.556 274.662 601.013 275.026 602.433 275.509C607.164 277.117 611.398 279.923 614.724 283.653C618.049 287.383 620.352 291.91 621.408 296.794C621.746 298.257 621.942 299.749 621.994 301.249C622.078 301.795 622.062 302.351 621.945 302.891Z" fill="#263238"/>
<path d="M626.449 295.623C626.303 295.623 626.286 293.282 625.36 289.672C624.169 284.954 621.855 280.593 618.617 276.961C615.378 273.328 611.31 270.532 606.758 268.81C603.262 267.477 600.921 267.184 600.953 267.038C601.498 266.998 602.046 267.036 602.579 267.152C604.06 267.393 605.517 267.758 606.937 268.241C611.683 269.841 615.934 272.642 619.277 276.371C622.619 280.101 624.939 284.633 626.01 289.526C626.332 290.991 626.527 292.482 626.595 293.981C626.644 294.533 626.595 295.089 626.449 295.623Z" fill="#263238"/>
<path d="M630.969 288.355C630.807 288.355 630.79 286.013 629.864 282.404C628.673 277.685 626.359 273.325 623.121 269.692C619.882 266.06 615.814 263.264 611.262 261.542C607.766 260.209 605.441 259.916 605.457 259.77C606.002 259.73 606.55 259.768 607.083 259.884C608.564 260.125 610.021 260.49 611.441 260.973C616.172 262.584 620.407 265.39 623.734 269.119C627.061 272.849 629.369 277.374 630.433 282.257C630.754 283.723 630.95 285.214 631.018 286.713C631.082 287.259 631.065 287.813 630.969 288.355Z" fill="#263238"/>
<path d="M635.473 281.087C635.311 281.087 635.295 278.745 634.368 275.135C633.177 270.417 630.863 266.056 627.625 262.424C624.386 258.792 620.318 255.996 615.766 254.274C612.27 252.941 609.945 252.648 609.961 252.502C610.506 252.461 611.054 252.5 611.587 252.615C613.068 252.855 614.526 253.219 615.945 253.705C620.676 255.316 624.911 258.122 628.238 261.851C631.565 265.58 633.873 270.106 634.937 274.989C635.258 276.455 635.454 277.945 635.522 279.444C635.586 279.991 635.569 280.544 635.473 281.087Z" fill="#263238"/>
<path d="M639.977 273.818C639.815 273.818 639.798 271.477 638.872 267.867C637.68 263.149 635.367 258.788 632.129 255.156C628.89 251.524 624.822 248.728 620.27 247.006C616.774 245.672 614.449 245.38 614.465 245.233C615.01 245.193 615.558 245.232 616.091 245.347C617.572 245.587 619.03 245.951 620.449 246.436C625.18 248.048 629.415 250.854 632.742 254.583C636.069 258.312 638.377 262.838 639.441 267.721C639.762 269.187 639.958 270.677 640.026 272.176C640.09 272.723 640.073 273.276 639.977 273.818Z" fill="#263238"/>
<path d="M643.294 301.574L632.693 316.924C632.693 316.924 648.953 315.021 663.099 324.029L672.855 307.59C672.855 307.59 657.831 295.786 643.229 301.574" fill="#EBEBEB"/>
<path d="M545.003 118.422C545.426 115.996 545.097 113.5 544.06 111.267C543.129 109.044 541.525 107.167 539.474 105.901C538.367 105.271 537.145 104.868 535.88 104.718C534.615 104.567 533.333 104.671 532.108 105.023C530.658 105.466 529.336 106.253 528.255 107.316C527.965 105.967 527.376 104.7 526.531 103.609C525.748 102.6 524.767 101.761 523.649 101.143C522.531 100.525 521.299 100.142 520.027 100.015C517.627 99.8349 515.23 100.403 513.166 101.641C511.042 102.861 509.34 104.699 508.288 106.91C506.972 109.755 506.613 112.949 507.263 116.015C508.131 119.2 509.754 122.128 511.995 124.552C515.556 128.649 520.304 133.869 520.304 133.869C520.304 133.869 526.434 131.771 531.686 130.617C534.917 129.949 537.944 128.522 540.515 126.454C542.83 124.324 544.403 121.51 545.003 118.422Z" fill="#606C38"/>
<path d="M509.572 161.722C509.169 160.618 508.43 159.668 507.458 159.007C506.544 158.315 505.434 157.933 504.288 157.917C503.318 157.913 502.374 158.229 501.604 158.818C500.833 159.406 500.279 160.233 500.027 161.169C499.388 160.48 498.547 160.01 497.624 159.826C496.702 159.642 495.745 159.753 494.889 160.145C493.861 160.661 493.02 161.485 492.483 162.502C491.891 163.514 491.629 164.685 491.735 165.852C491.878 167.337 492.5 168.735 493.507 169.836C494.631 170.932 496.004 171.741 497.507 172.193C499.962 173.006 503.182 173.998 503.182 173.998C503.182 173.998 505.182 171.673 507.052 169.885C508.219 168.827 509.117 167.506 509.67 166.031C510.099 164.621 510.064 163.111 509.572 161.722Z" fill="#606C38"/>
<path d="M278.973 401.833C279.206 400.685 279.081 399.494 278.615 398.419C278.196 397.35 277.458 396.436 276.501 395.801C275.671 395.292 274.697 395.068 273.728 395.165C272.759 395.262 271.848 395.674 271.135 396.338C270.952 395.418 270.485 394.58 269.799 393.941C269.113 393.302 268.244 392.895 267.314 392.777C266.182 392.668 265.044 392.918 264.062 393.492C263.025 394.039 262.18 394.89 261.64 395.931C260.98 397.271 260.775 398.789 261.054 400.256C261.43 401.784 262.166 403.2 263.201 404.386C264.827 406.37 267.054 408.923 267.054 408.923C267.054 408.923 269.997 407.996 272.518 407.459C274.066 407.184 275.527 406.543 276.778 405.59C277.888 404.601 278.656 403.286 278.973 401.833Z" fill="#606C38"/>
<path d="M601.945 403.817C601.667 403.158 601.204 402.593 600.612 402.191C600.03 401.766 599.332 401.528 598.612 401.508C598.643 401.948 598.53 402.386 598.292 402.757C598.054 403.128 597.702 403.413 597.289 403.568C596.877 403.723 596.425 403.741 596.001 403.619C595.577 403.497 595.204 403.241 594.937 402.89C594.586 402.738 594.207 402.659 593.823 402.659C593.44 402.659 593.061 402.738 592.71 402.89C592.066 403.209 591.537 403.721 591.197 404.354C590.825 404.992 590.66 405.731 590.726 406.467C590.822 407.401 591.215 408.279 591.848 408.972C592.557 409.66 593.421 410.167 594.368 410.451L597.929 411.589C597.929 411.589 599.181 410.11 600.352 408.988C601.081 408.329 601.639 407.503 601.978 406.581C602.264 405.68 602.252 404.711 601.945 403.817Z" fill="#606C38"/>
<path d="M296.875 349.216C296.62 348.522 296.153 347.925 295.542 347.509C294.967 347.07 294.265 346.831 293.542 346.826C293.16 346.826 292.782 346.906 292.432 347.06C292.082 347.214 291.768 347.439 291.509 347.72C291.203 348.053 290.98 348.455 290.859 348.891C290.575 348.59 290.232 348.352 289.851 348.192C289.501 348.043 289.125 347.967 288.745 347.967C288.365 347.967 287.989 348.043 287.639 348.192C286.991 348.512 286.462 349.03 286.127 349.671C285.755 350.304 285.59 351.038 285.656 351.769C285.748 352.703 286.142 353.582 286.778 354.273C287.483 354.966 288.349 355.475 289.298 355.753C290.826 356.273 292.859 356.891 292.859 356.891C292.859 356.891 294.111 355.427 295.282 354.305C296.009 353.639 296.567 352.809 296.908 351.883C297.176 351.012 297.164 350.08 296.875 349.216Z" fill="#606C38"/>
<path d="M581.913 144.486C581.639 143.825 581.175 143.259 580.58 142.86C579.997 142.436 579.3 142.198 578.58 142.177C578.198 142.184 577.822 142.266 577.473 142.419C577.124 142.573 576.809 142.795 576.547 143.072C576.243 143.404 576.025 143.806 575.913 144.243C575.627 143.948 575.284 143.716 574.905 143.56C574.552 143.411 574.174 143.334 573.791 143.334C573.408 143.334 573.03 143.411 572.677 143.56C572.045 143.904 571.525 144.422 571.179 145.054C570.833 145.685 570.676 146.402 570.726 147.121C570.822 148.054 571.215 148.932 571.848 149.625C572.557 150.313 573.422 150.82 574.368 151.104L577.929 152.242C577.929 152.242 579.181 150.763 580.352 149.641C581.081 148.982 581.639 148.156 581.978 147.234C582.25 146.335 582.227 145.372 581.913 144.486Z" fill="#606C38"/>
<path d="M578.677 365.265C578.809 363.13 578.281 361.007 577.165 359.183C576.134 357.36 574.559 355.905 572.661 355.021C571.033 354.316 569.218 354.163 567.495 354.586C565.771 355.009 564.234 355.984 563.116 357.362C562.723 356.232 562.091 355.201 561.263 354.338C560.484 353.55 559.554 352.927 558.528 352.508C557.503 352.089 556.403 351.882 555.295 351.899C553.205 351.986 551.196 352.731 549.556 354.029C547.819 355.283 546.513 357.044 545.816 359.07C544.97 361.658 544.97 364.448 545.816 367.037C546.874 369.684 548.546 372.041 550.694 373.915C554.19 377.167 558.824 381.118 558.824 381.118C558.824 381.118 563.897 378.695 568.336 377.102C571.059 376.199 573.528 374.661 575.539 372.614C577.348 370.565 578.448 367.988 578.677 365.265Z" fill="#606C38"/>
</svg>
