<svg width="757" height="541" viewBox="0 0 757 541" fill="none" xmlns="http://www.w3.org/2000/svg">
<path d="M641.211 136.916C611.526 58.7742 544.575 22.722 464.82 42.9554C399.577 59.51 368.562 114.692 333.902 134.503C283.626 163.317 207.959 152.324 142.338 210.719C100.724 247.746 105.569 332.618 144.706 393.578C175.635 441.694 254.406 489.237 326.386 445.178C424.472 385.084 389.217 297.918 433.318 267.99C481.982 234.956 537.719 277.382 610.38 241.535C639.265 227.22 657.93 180.921 641.211 136.916Z" fill="#606C38"/>
<path opacity="0.7" d="M641.211 136.916C611.526 58.7742 544.575 22.722 464.82 42.9554C399.577 59.51 368.562 114.692 333.902 134.503C283.626 163.317 207.959 152.324 142.338 210.719C100.724 247.746 105.569 332.618 144.706 393.578C175.635 441.694 254.406 489.237 326.386 445.178C424.472 385.084 389.217 297.918 433.318 267.99C481.982 234.956 537.719 277.382 610.38 241.535C639.265 227.22 657.93 180.921 641.211 136.916Z" fill="white"/>
<path d="M247.312 509.903C302.14 509.903 346.587 506.653 346.587 502.643C346.587 498.633 302.14 495.383 247.312 495.383C192.484 495.383 148.037 498.633 148.037 502.643C148.037 506.653 192.484 509.903 247.312 509.903Z" fill="#606C38"/>
<path d="M94.2249 488.09H657.303" stroke="#263238" stroke-width="1.25903" stroke-linecap="round" stroke-linejoin="round"/>
<path d="M607.211 358.975H588.686V357.33C588.685 356.564 588.841 355.805 589.142 355.101C589.444 354.396 589.887 353.761 590.442 353.233C590.998 352.706 591.655 352.297 592.374 352.032C593.093 351.767 593.859 351.652 594.624 351.693L601.88 352.094C603.319 352.171 604.674 352.798 605.666 353.844C606.658 354.891 607.211 356.278 607.211 357.72V358.975Z" fill="#606C38"/>
<path opacity="0.8" d="M607.211 358.975H588.686V357.33C588.685 356.564 588.841 355.805 589.142 355.101C589.444 354.396 589.887 353.761 590.442 353.233C590.998 352.706 591.655 352.297 592.374 352.032C593.093 351.767 593.859 351.652 594.624 351.693L601.88 352.094C603.319 352.171 604.674 352.798 605.666 353.844C606.658 354.891 607.211 356.278 607.211 357.72V358.975Z" fill="white"/>
<path d="M607.211 358.975H588.686V357.33C588.685 356.564 588.841 355.805 589.142 355.101C589.444 354.396 589.887 353.761 590.442 353.233C590.998 352.706 591.655 352.297 592.374 352.032C593.093 351.767 593.859 351.652 594.624 351.693L601.88 352.094C603.319 352.171 604.674 352.798 605.666 353.844C606.658 354.891 607.211 356.278 607.211 357.72V358.975Z" stroke="#263238" stroke-width="1.25903" stroke-linecap="round" stroke-linejoin="round"/>
<path d="M557.195 320.662C557.162 319.958 556.859 319.295 556.349 318.809C555.84 318.324 555.163 318.053 554.459 318.054H535.74C535.037 318.056 534.361 318.327 533.852 318.812C533.343 319.297 533.04 319.959 533.004 320.662L537.47 359.7H565.414L557.195 320.662Z" fill="#606C38" stroke="#263238" stroke-width="1.25903" stroke-linecap="round" stroke-linejoin="round"/>
<path d="M608.033 260.654H601.058L593.228 334.338H600.193C600.767 334.324 601.318 334.105 601.745 333.72C602.171 333.335 602.446 332.809 602.518 332.239L609.926 262.742C609.962 262.476 609.94 262.205 609.861 261.948C609.781 261.691 609.647 261.455 609.466 261.256C609.286 261.057 609.064 260.9 608.816 260.796C608.569 260.692 608.302 260.643 608.033 260.654Z" fill="#606C38" stroke="#263238" stroke-width="1.25903" stroke-linecap="round" stroke-linejoin="round"/>
<path d="M597.251 334.338H492.71C492.443 334.344 492.177 334.291 491.933 334.184C491.688 334.078 491.469 333.919 491.291 333.72C491.113 333.52 490.981 333.284 490.903 333.029C490.825 332.773 490.803 332.504 490.839 332.239L498.236 262.71C498.306 262.141 498.579 261.617 499.004 261.234C499.429 260.85 499.978 260.633 500.55 260.621H605.092C605.358 260.614 605.623 260.665 605.868 260.771C606.113 260.876 606.332 261.034 606.51 261.232C606.688 261.431 606.821 261.666 606.899 261.921C606.977 262.176 606.999 262.445 606.963 262.71L599.566 332.239C599.496 332.808 599.224 333.334 598.799 333.719C598.374 334.104 597.825 334.324 597.251 334.338Z" fill="#606C38"/>
<path opacity="0.4" d="M597.251 334.338H492.71C492.443 334.344 492.177 334.291 491.933 334.184C491.688 334.078 491.469 333.919 491.291 333.72C491.113 333.52 490.981 333.284 490.903 333.029C490.825 332.773 490.803 332.504 490.839 332.239L498.236 262.71C498.306 262.141 498.579 261.617 499.004 261.234C499.429 260.85 499.978 260.633 500.55 260.621H605.092C605.358 260.614 605.623 260.665 605.868 260.771C606.113 260.876 606.332 261.034 606.51 261.232C606.688 261.431 606.821 261.666 606.899 261.921C606.977 262.176 606.999 262.445 606.963 262.71L599.566 332.239C599.496 332.808 599.224 333.334 598.799 333.719C598.374 334.104 597.825 334.324 597.251 334.338Z" fill="white"/>
<path d="M597.251 334.338H492.71C492.443 334.344 492.177 334.291 491.933 334.184C491.688 334.078 491.469 333.919 491.291 333.72C491.113 333.52 490.981 333.284 490.903 333.029C490.825 332.773 490.803 332.504 490.839 332.239L498.236 262.71C498.306 262.141 498.579 261.617 499.004 261.234C499.429 260.85 499.978 260.633 500.55 260.621H605.092C605.358 260.614 605.623 260.665 605.868 260.771C606.113 260.876 606.332 261.034 606.51 261.232C606.688 261.431 606.821 261.666 606.899 261.921C606.977 262.176 606.999 262.445 606.963 262.71L599.566 332.239C599.496 332.808 599.224 333.334 598.799 333.719C598.374 334.104 597.825 334.324 597.251 334.338Z" stroke="#263238" stroke-width="1.25903" stroke-linecap="round" stroke-linejoin="round"/>
<path d="M566.441 356.66H532.063C531.661 356.66 531.276 356.819 530.992 357.103C530.708 357.387 530.549 357.773 530.549 358.174C530.549 358.577 530.708 358.964 530.992 359.249C531.275 359.535 531.66 359.697 532.063 359.7H566.431C566.833 359.697 567.218 359.535 567.502 359.249C567.785 358.964 567.945 358.577 567.945 358.174C567.945 357.775 567.787 357.391 567.505 357.107C567.223 356.823 566.841 356.663 566.441 356.66Z" fill="#606C38" stroke="#263238" stroke-width="1.25903" stroke-linecap="round" stroke-linejoin="round"/>
<path d="M595.294 327.565H496.711C496.478 327.57 496.247 327.525 496.033 327.432C495.819 327.339 495.628 327.201 495.473 327.027C495.318 326.853 495.202 326.648 495.134 326.425C495.066 326.202 495.047 325.967 495.078 325.736L501.567 265.068C501.626 264.571 501.864 264.112 502.236 263.776C502.607 263.44 503.088 263.249 503.589 263.24H602.139C602.372 263.236 602.602 263.283 602.815 263.376C603.028 263.47 603.218 263.608 603.373 263.781C603.528 263.955 603.644 264.159 603.713 264.381C603.781 264.603 603.802 264.838 603.772 265.068L597.284 325.736C597.223 326.227 596.989 326.681 596.624 327.016C596.26 327.351 595.788 327.545 595.294 327.565Z" fill="#606C38"/>
<path opacity="0.8" d="M595.294 327.565H496.711C496.478 327.57 496.247 327.525 496.033 327.432C495.819 327.339 495.628 327.201 495.473 327.027C495.318 326.853 495.202 326.648 495.134 326.425C495.066 326.202 495.047 325.967 495.078 325.736L501.567 265.068C501.626 264.571 501.864 264.112 502.236 263.776C502.607 263.44 503.088 263.249 503.589 263.24H602.139C602.372 263.236 602.602 263.283 602.815 263.376C603.028 263.47 603.218 263.608 603.373 263.781C603.528 263.955 603.644 264.159 603.713 264.381C603.781 264.603 603.802 264.838 603.772 265.068L597.284 325.736C597.223 326.227 596.989 326.681 596.624 327.016C596.26 327.351 595.788 327.545 595.294 327.565Z" fill="white"/>
<path d="M595.294 327.565H496.711C496.478 327.57 496.247 327.525 496.033 327.432C495.819 327.339 495.628 327.201 495.473 327.027C495.318 326.853 495.202 326.648 495.134 326.425C495.066 326.202 495.047 325.967 495.078 325.736L501.567 265.068C501.626 264.571 501.864 264.112 502.236 263.776C502.607 263.44 503.088 263.249 503.589 263.24H602.139C602.372 263.236 602.602 263.283 602.815 263.376C603.028 263.47 603.218 263.608 603.373 263.781C603.528 263.955 603.644 264.159 603.713 264.381C603.781 264.603 603.802 264.838 603.772 265.068L597.284 325.736C597.223 326.227 596.989 326.681 596.624 327.016C596.26 327.351 595.788 327.545 595.294 327.565Z" stroke="#263238" stroke-width="1.25903" stroke-linecap="round" stroke-linejoin="round"/>
<path d="M372.898 369.514H380.955V486.467C380.955 486.895 380.785 487.305 380.483 487.607C380.181 487.91 379.771 488.079 379.343 488.079H374.52C374.093 488.079 373.683 487.91 373.381 487.607C373.079 487.305 372.909 486.895 372.909 486.467V369.514H372.898Z" fill="#606C38" stroke="#263238" stroke-width="1.25903" stroke-linecap="round" stroke-linejoin="round"/>
<path d="M622.33 358.975H552.491V369.514H622.33V358.975Z" fill="#606C38"/>
<path opacity="0.4" d="M622.33 358.975H552.491V369.514H622.33V358.975Z" fill="white"/>
<path d="M622.33 358.975H552.491V369.514H622.33V358.975Z" stroke="#263238" stroke-width="1.25903" stroke-linecap="round" stroke-linejoin="round"/>
<path d="M422.839 369.514H430.895V486.467C430.895 486.895 430.725 487.305 430.423 487.607C430.121 487.91 429.711 488.079 429.284 488.079H424.461C424.248 488.081 424.037 488.04 423.841 487.96C423.644 487.879 423.465 487.761 423.314 487.611C423.164 487.461 423.044 487.283 422.962 487.087C422.881 486.89 422.839 486.68 422.839 486.467V369.514Z" fill="#606C38" stroke="#263238" stroke-width="1.25903" stroke-linecap="round" stroke-linejoin="round"/>
<path d="M609.623 369.514H617.68V486.467C617.68 486.895 617.51 487.305 617.208 487.607C616.905 487.91 616.496 488.079 616.068 488.079H611.245C610.818 488.079 610.408 487.91 610.106 487.607C609.803 487.305 609.634 486.895 609.634 486.467V369.514H609.623Z" fill="#606C38" stroke="#263238" stroke-width="1.25903" stroke-linecap="round" stroke-linejoin="round"/>
<path d="M572.411 358.975H368.237V369.514H572.411V358.975Z" fill="#606C38"/>
<path opacity="0.7" d="M572.411 358.975H368.237V369.514H572.411V358.975Z" fill="white"/>
<path d="M572.411 358.975H368.237V369.514H572.411V358.975Z" stroke="#263238" stroke-width="1.25903" stroke-linecap="round" stroke-linejoin="round"/>
<path d="M559.704 369.514H567.75V486.467C567.75 486.895 567.58 487.305 567.278 487.607C566.976 487.91 566.566 488.079 566.139 488.079H561.261C560.834 488.079 560.424 487.91 560.122 487.607C559.82 487.305 559.65 486.895 559.65 486.467V369.514H559.704Z" fill="#606C38" stroke="#263238" stroke-width="1.25903" stroke-linecap="round" stroke-linejoin="round"/>
<path d="M556.06 354.636H497.771V358.975H556.06V354.636Z" fill="#606C38"/>
<path opacity="0.4" d="M556.06 354.636H497.771V358.975H556.06V354.636Z" fill="white"/>
<path d="M556.06 354.636H497.771V358.975H556.06V354.636Z" stroke="#263238" stroke-width="1.25903" stroke-linecap="round" stroke-linejoin="round"/>
<path d="M122.277 488.09H219.411L219.411 358.77H122.277L122.277 488.09Z" fill="#606C38"/>
<path opacity="0.7" d="M122.277 488.09H219.411L219.411 358.77H122.277L122.277 488.09Z" fill="white"/>
<path d="M122.277 488.09H219.411L219.411 358.77H122.277L122.277 488.09Z" stroke="#263238" stroke-width="1.25903" stroke-linecap="round" stroke-linejoin="round"/>
<path d="M103.741 488.09H122.277L122.277 358.77H103.741L103.741 488.09Z" fill="#606C38"/>
<path opacity="0.3" d="M103.741 488.09H122.277L122.277 358.77H103.741L103.741 488.09Z" fill="white"/>
<path d="M103.741 488.09H122.277L122.277 358.77H103.741L103.741 488.09Z" stroke="#263238" stroke-width="1.25903" stroke-linecap="round" stroke-linejoin="round"/>
<path d="M128.582 399.767H212.609V368.356H128.582V399.767Z" fill="white" stroke="#263238" stroke-width="1.25903" stroke-linecap="round" stroke-linejoin="round"/>
<path d="M128.582 434.596H212.609V403.186H128.582V434.596Z" fill="white" stroke="#263238" stroke-width="1.25903" stroke-linecap="round" stroke-linejoin="round"/>
<path d="M128.582 469.437H212.609V438.026H128.582V469.437Z" fill="white" stroke="#263238" stroke-width="1.25903" stroke-linecap="round" stroke-linejoin="round"/>
<path d="M167.092 384.11C167.092 384.803 167.297 385.481 167.682 386.058C168.067 386.634 168.614 387.083 169.255 387.349C169.895 387.614 170.599 387.684 171.279 387.548C171.959 387.413 172.583 387.079 173.073 386.589C173.563 386.099 173.897 385.474 174.032 384.794C174.167 384.114 174.098 383.409 173.832 382.768C173.567 382.128 173.118 381.58 172.542 381.195C171.966 380.81 171.288 380.604 170.595 380.604C170.135 380.604 169.68 380.695 169.255 380.871C168.829 381.047 168.443 381.306 168.118 381.631C167.792 381.957 167.534 382.343 167.358 382.768C167.182 383.194 167.092 383.65 167.092 384.11Z" fill="#606C38" stroke="#263238" stroke-width="1.25903" stroke-linecap="round" stroke-linejoin="round"/>
<path d="M167.092 418.896C167.089 419.59 167.293 420.269 167.677 420.847C168.061 421.425 168.607 421.876 169.247 422.143C169.887 422.41 170.592 422.481 171.272 422.347C171.953 422.213 172.578 421.88 173.069 421.39C173.56 420.9 173.895 420.275 174.031 419.595C174.167 418.915 174.098 418.209 173.834 417.568C173.569 416.927 173.12 416.379 172.543 415.993C171.967 415.607 171.289 415.401 170.595 415.401C169.668 415.401 168.778 415.769 168.122 416.424C167.465 417.08 167.094 417.968 167.092 418.896Z" fill="#606C38" stroke="#263238" stroke-width="1.25903" stroke-linecap="round" stroke-linejoin="round"/>
<path d="M167.092 453.737C167.092 454.43 167.297 455.108 167.682 455.684C168.067 456.261 168.614 456.71 169.255 456.976C169.895 457.241 170.599 457.31 171.279 457.175C171.959 457.04 172.583 456.706 173.073 456.216C173.563 455.725 173.897 455.101 174.032 454.421C174.167 453.741 174.098 453.036 173.832 452.395C173.567 451.755 173.118 451.207 172.542 450.822C171.966 450.437 171.288 450.231 170.595 450.231C170.135 450.231 169.68 450.322 169.255 450.498C168.829 450.674 168.443 450.932 168.118 451.258C167.792 451.583 167.534 451.97 167.358 452.395C167.182 452.82 167.092 453.276 167.092 453.737Z" fill="#606C38" stroke="#263238" stroke-width="1.25903" stroke-linecap="round" stroke-linejoin="round"/>
<path d="M543.072 117.613H510.434V317.848H543.072C545.436 317.85 547.777 317.385 549.961 316.481C552.146 315.577 554.131 314.251 555.803 312.579C557.475 310.907 558.802 308.921 559.707 306.736C560.612 304.551 561.078 302.209 561.078 299.844V135.618C561.078 133.253 560.612 130.91 559.707 128.725C558.802 126.54 557.475 124.555 555.803 122.883C554.131 121.211 552.146 119.885 549.961 118.981C547.777 118.077 545.436 117.612 543.072 117.613Z" fill="#263238" stroke="#263238" stroke-width="1.25903" stroke-linecap="round" stroke-linejoin="round"/>
<path d="M536.27 117.613H262.203C252.265 117.613 244.208 125.674 244.208 135.618V299.855C244.208 309.798 252.265 317.859 262.203 317.859H536.27C546.208 317.859 554.265 309.798 554.265 299.855V135.618C554.265 125.674 546.208 117.613 536.27 117.613Z" fill="#606C38" stroke="#263238" stroke-width="1.25903" stroke-linecap="round" stroke-linejoin="round"/>
<path d="M529.954 124.398H527.175C524.547 124.398 522.417 126.529 522.417 129.158V131.939C522.417 134.568 524.547 136.7 527.175 136.7H529.954C532.582 136.7 534.712 134.568 534.712 131.939V129.158C534.712 126.529 532.582 124.398 529.954 124.398Z" fill="#999999" stroke="#263238" stroke-width="1.25903" stroke-linecap="round" stroke-linejoin="round"/>
<path opacity="0.5" d="M272.844 130.554C272.844 131.772 272.483 132.963 271.807 133.976C271.13 134.988 270.168 135.777 269.043 136.243C267.918 136.709 266.681 136.83 265.487 136.592C264.293 136.353 263.196 135.766 262.336 134.904C261.476 134.042 260.891 132.944 260.655 131.749C260.418 130.554 260.542 129.315 261.009 128.191C261.477 127.066 262.267 126.105 263.28 125.43C264.294 124.755 265.484 124.395 266.702 124.398C267.509 124.398 268.309 124.557 269.055 124.866C269.801 125.176 270.479 125.63 271.049 126.201C271.62 126.773 272.072 127.452 272.38 128.199C272.688 128.946 272.846 129.746 272.844 130.554Z" fill="black"/>
<path d="M272.844 130.554C272.844 131.772 272.483 132.963 271.807 133.976C271.13 134.988 270.168 135.777 269.043 136.243C267.918 136.709 266.681 136.83 265.487 136.592C264.293 136.353 263.196 135.766 262.336 134.904C261.476 134.042 260.891 132.944 260.655 131.749C260.418 130.554 260.542 129.315 261.009 128.191C261.477 127.066 262.267 126.105 263.28 125.43C264.294 124.755 265.484 124.395 266.702 124.398C267.509 124.398 268.309 124.557 269.055 124.866C269.801 125.176 270.479 125.63 271.049 126.201C271.62 126.773 272.072 127.452 272.38 128.199C272.688 128.946 272.846 129.746 272.844 130.554V130.554Z" stroke="#263238" stroke-width="1.25903" stroke-linecap="round" stroke-linejoin="round"/>
<path opacity="0.5" d="M304.909 136.711C308.307 136.711 311.062 133.954 311.062 130.554C311.062 127.154 308.307 124.398 304.909 124.398C301.51 124.398 298.755 127.154 298.755 130.554C298.755 133.954 301.51 136.711 304.909 136.711Z" fill="white" stroke="#263238" stroke-width="1.25903" stroke-linecap="round" stroke-linejoin="round"/>
<path d="M304.909 136.711C308.307 136.711 311.062 133.954 311.062 130.554C311.062 127.154 308.307 124.398 304.909 124.398C301.51 124.398 298.755 127.154 298.755 130.554C298.755 133.954 301.51 136.711 304.909 136.711Z" stroke="#263238" stroke-width="1.25903" stroke-linecap="round" stroke-linejoin="round"/>
<path d="M285.8 136.711C289.198 136.711 291.953 133.954 291.953 130.554C291.953 127.154 289.198 124.398 285.8 124.398C282.402 124.398 279.647 127.154 279.647 130.554C279.647 133.954 282.402 136.711 285.8 136.711Z" stroke="#263238" stroke-width="1.25903" stroke-linecap="round" stroke-linejoin="round"/>
<path d="M536.27 143.495H262.214C256.785 143.495 252.384 147.898 252.384 153.33V299.844C252.384 305.276 256.785 309.679 262.214 309.679H536.27C541.699 309.679 546.1 305.276 546.1 299.844V153.33C546.1 147.898 541.699 143.495 536.27 143.495Z" fill="#606C38"/>
<path opacity="0.3" d="M536.27 143.495H262.214C256.785 143.495 252.384 147.898 252.384 153.33V299.844C252.384 305.276 256.785 309.679 262.214 309.679H536.27C541.699 309.679 546.1 305.276 546.1 299.844V153.33C546.1 147.898 541.699 143.495 536.27 143.495Z" fill="black"/>
<path d="M536.27 143.495H262.214C256.785 143.495 252.384 147.898 252.384 153.33V299.844C252.384 305.276 256.785 309.679 262.214 309.679H536.27C541.699 309.679 546.1 305.276 546.1 299.844V153.33C546.1 147.898 541.699 143.495 536.27 143.495Z" stroke="#263238" stroke-width="1.25903" stroke-linecap="round" stroke-linejoin="round"/>
<path d="M336.541 150.301H262.203C260.537 150.301 259.186 151.652 259.186 153.319V299.844C259.186 301.511 260.537 302.863 262.203 302.863H336.541C338.207 302.863 339.558 301.511 339.558 299.844V153.319C339.558 151.652 338.207 150.301 336.541 150.301Z" fill="#999999" stroke="#263238" stroke-width="1.25903" stroke-linecap="round" stroke-linejoin="round"/>
<path d="M440.704 150.301H356.828C355.162 150.301 353.811 151.652 353.811 153.319V299.844C353.811 301.511 355.162 302.863 356.828 302.863H440.704C442.37 302.863 443.721 301.511 443.721 299.844V153.319C443.721 151.652 442.37 150.301 440.704 150.301Z" fill="#606C38"/>
<path opacity="0.8" d="M440.704 150.301H356.828C355.162 150.301 353.811 151.652 353.811 153.319V299.844C353.811 301.511 355.162 302.863 356.828 302.863H440.704C442.37 302.863 443.721 301.511 443.721 299.844V153.319C443.721 151.652 442.37 150.301 440.704 150.301Z" fill="white"/>
<path d="M440.704 150.301H356.828C355.162 150.301 353.811 151.652 353.811 153.319V299.844C353.811 301.511 355.162 302.863 356.828 302.863H440.704C442.37 302.863 443.721 301.511 443.721 299.844V153.319C443.721 151.652 442.37 150.301 440.704 150.301Z" stroke="#263238" stroke-width="1.25903" stroke-linecap="round" stroke-linejoin="round"/>
<path d="M531.966 150.301H464.171C463.441 150.303 462.743 150.595 462.228 151.113C461.713 151.63 461.424 152.33 461.424 153.06V161.369H534.712V153.06C534.712 152.33 534.423 151.63 533.909 151.113C533.394 150.595 532.695 150.303 531.966 150.301Z" fill="#606C38" stroke="#263238" stroke-width="1.25903" stroke-linecap="round" stroke-linejoin="round"/>
<path d="M525.466 153.644H531.998" stroke="#263238" stroke-width="1.25903" stroke-linecap="round" stroke-linejoin="round"/>
<path d="M525.466 155.83H531.998" stroke="#263238" stroke-width="1.25903" stroke-linecap="round" stroke-linejoin="round"/>
<path d="M531.998 158.004H525.466" stroke="#263238" stroke-width="1.25903" stroke-linecap="round" stroke-linejoin="round"/>
<path d="M498.074 161.369L496.376 154.477C496.081 153.285 495.396 152.226 494.43 151.469C493.463 150.712 492.272 150.301 491.044 150.301H464.171C463.441 150.303 462.743 150.595 462.228 151.113C461.713 151.63 461.424 152.33 461.424 153.06V194.576C461.424 195.305 461.713 196.004 462.228 196.519C462.744 197.035 463.442 197.324 464.171 197.324H531.966C532.694 197.324 533.393 197.035 533.908 196.519C534.423 196.004 534.712 195.305 534.712 194.576V161.369H498.074Z" fill="#999999" stroke="#263238" stroke-width="1.25903" stroke-linecap="round" stroke-linejoin="round"/>
<path d="M258.04 293.871H286.287C286.925 293.871 287.433 293.601 287.433 293.265V263.943C287.433 263.608 286.925 263.337 286.287 263.337H258.04C257.412 263.337 256.893 263.608 256.893 263.943V293.222C256.893 293.601 257.38 293.871 258.04 293.871Z" fill="#606C38"/>
<path opacity="0.3" d="M258.04 293.871H286.287C286.925 293.871 287.433 293.601 287.433 293.265V263.943C287.433 263.608 286.925 263.337 286.287 263.337H258.04C257.412 263.337 256.893 263.608 256.893 263.943V293.222C256.893 293.601 257.38 293.871 258.04 293.871Z" fill="black"/>
<path d="M258.04 293.871H286.287C286.925 293.871 287.433 293.601 287.433 293.265V263.943C287.433 263.608 286.925 263.337 286.287 263.337H258.04C257.412 263.337 256.893 263.608 256.893 263.943V293.222C256.893 293.601 257.38 293.871 258.04 293.871Z" stroke="#263238" stroke-width="1.25903" stroke-linecap="round" stroke-linejoin="round"/>
<path d="M293.402 293.871H321.649C322.276 293.871 322.796 293.601 322.796 293.265V263.943C322.796 263.608 322.276 263.337 321.649 263.337H293.402C292.764 263.337 292.256 263.608 292.256 263.943V293.222C292.256 293.601 292.764 293.871 293.402 293.871Z" fill="#606C38" stroke="#263238" stroke-width="1.25903" stroke-linecap="round" stroke-linejoin="round"/>
<path d="M271.655 258.295H299.902C300.54 258.295 301.048 258.025 301.048 257.689V228.367C301.048 228.032 300.54 227.761 299.902 227.761H271.655C271.028 227.761 270.509 228.032 270.509 228.367V257.689C270.509 258.025 271.028 258.295 271.655 258.295Z" fill="#606C38" stroke="#263238" stroke-width="1.25903" stroke-linecap="round" stroke-linejoin="round"/>
<path d="M307.018 258.295H335.243C335.87 258.295 336.389 258.025 336.389 257.689V228.367C336.389 228.032 335.87 227.761 335.243 227.761H307.018C306.379 227.761 305.871 228.032 305.871 228.367V257.689C305.871 258.025 306.379 258.295 307.018 258.295Z" fill="#606C38" stroke="#263238" stroke-width="1.25903" stroke-linecap="round" stroke-linejoin="round"/>
<path d="M268.93 222.719H297.177C297.815 222.719 298.334 222.448 298.334 222.113V192.791C298.334 192.455 297.815 192.185 297.177 192.185H268.93C268.302 192.185 267.783 192.455 267.783 192.791V222.113C267.783 222.448 268.302 222.719 268.93 222.719Z" fill="#606C38"/>
<path opacity="0.5" d="M268.93 222.719H297.177C297.815 222.719 298.334 222.448 298.334 222.113V192.791C298.334 192.455 297.815 192.185 297.177 192.185H268.93C268.302 192.185 267.783 192.455 267.783 192.791V222.113C267.783 222.448 268.302 222.719 268.93 222.719Z" fill="white"/>
<path d="M268.93 222.719H297.177C297.815 222.719 298.334 222.448 298.334 222.113V192.791C298.334 192.455 297.815 192.185 297.177 192.185H268.93C268.302 192.185 267.783 192.455 267.783 192.791V222.113C267.783 222.448 268.302 222.719 268.93 222.719Z" stroke="#263238" stroke-width="1.25903" stroke-linecap="round" stroke-linejoin="round"/>
<path d="M304.292 222.719H332.539C333.177 222.719 333.686 222.448 333.686 222.113V192.791C333.686 192.455 333.177 192.185 332.539 192.185H304.292C303.654 192.185 303.146 192.455 303.146 192.791V222.113C303.146 222.448 303.654 222.719 304.292 222.719Z" fill="#606C38" stroke="#263238" stroke-width="1.25903" stroke-linecap="round" stroke-linejoin="round"/>
<path d="M268.93 187.186H297.177C297.815 187.186 298.334 186.916 298.334 186.58V157.215C298.334 156.879 297.815 156.609 297.177 156.609H268.93C268.302 156.609 267.783 156.879 267.783 157.215V186.537C267.783 186.872 268.302 187.186 268.93 187.186Z" fill="#606C38" stroke="#263238" stroke-width="1.25903" stroke-linecap="round" stroke-linejoin="round"/>
<path d="M304.292 187.186H332.539C333.177 187.186 333.686 186.916 333.686 186.58V157.215C333.686 156.879 333.177 156.609 332.539 156.609H304.292C303.654 156.609 303.146 156.879 303.146 157.215V186.537C303.146 186.872 303.654 187.186 304.292 187.186Z" fill="#606C38"/>
<path opacity="0.7" d="M304.292 187.186H332.539C333.177 187.186 333.686 186.916 333.686 186.58V157.215C333.686 156.879 333.177 156.609 332.539 156.609H304.292C303.654 156.609 303.146 156.879 303.146 157.215V186.537C303.146 186.872 303.654 187.186 304.292 187.186Z" fill="white"/>
<path d="M304.292 187.186H332.539C333.177 187.186 333.686 186.916 333.686 186.58V157.215C333.686 156.879 333.177 156.609 332.539 156.609H304.292C303.654 156.609 303.146 156.879 303.146 157.215V186.537C303.146 186.872 303.654 187.186 304.292 187.186Z" stroke="#263238" stroke-width="1.25903" stroke-linecap="round" stroke-linejoin="round"/>
<path d="M525.974 267.254H458.19C457.461 267.26 456.763 267.552 456.247 268.068C455.731 268.585 455.439 269.283 455.433 270.013V311.616C455.433 311.978 455.504 312.337 455.643 312.672C455.781 313.007 455.984 313.311 456.241 313.567C456.497 313.823 456.801 314.026 457.135 314.165C457.47 314.304 457.828 314.375 458.19 314.375H525.974C526.705 314.372 527.405 314.081 527.921 313.564C528.438 313.047 528.729 312.347 528.732 311.616V270.046C528.735 269.681 528.666 269.319 528.529 268.981C528.391 268.644 528.189 268.336 527.933 268.077C527.676 267.817 527.372 267.611 527.036 267.47C526.7 267.329 526.339 267.255 525.974 267.254Z" fill="#263238" stroke="#263238" stroke-width="1.25903" stroke-linecap="round" stroke-linejoin="round"/>
<path d="M521.411 265.934H453.627C452.897 265.934 452.198 266.223 451.681 266.738C451.164 267.253 450.872 267.952 450.869 268.682V276.992H524.168V268.682C524.166 267.952 523.874 267.253 523.357 266.738C522.84 266.223 522.14 265.934 521.411 265.934Z" fill="#606C38" stroke="#263238" stroke-width="1.25903" stroke-linecap="round" stroke-linejoin="round"/>
<path d="M514.911 269.288H521.443" stroke="#263238" stroke-width="1.25903" stroke-linecap="round" stroke-linejoin="round"/>
<path d="M514.911 271.463H521.443" stroke="#263238" stroke-width="1.25903" stroke-linecap="round" stroke-linejoin="round"/>
<path d="M521.443 273.638H514.911" stroke="#263238" stroke-width="1.25903" stroke-linecap="round" stroke-linejoin="round"/>
<path d="M487.519 276.992L485.832 270.11C485.537 268.919 484.852 267.86 483.886 267.103C482.919 266.346 481.728 265.934 480.5 265.934H453.627C452.897 265.934 452.198 266.223 451.681 266.738C451.164 267.253 450.872 267.952 450.869 268.682V310.199C450.872 310.929 451.163 311.63 451.68 312.146C452.197 312.663 452.896 312.955 453.627 312.958H521.411C522.142 312.958 522.844 312.667 523.361 312.15C523.878 311.632 524.168 310.93 524.168 310.199V276.992H487.519Z" fill="#999999" stroke="#263238" stroke-width="1.25903" stroke-linecap="round" stroke-linejoin="round"/>
<path d="M523.238 204.411H455.444C454.99 204.4 454.54 204.5 454.135 204.704C453.729 204.908 453.38 205.209 453.119 205.58C452.815 206.039 452.653 206.577 452.654 207.127V248.633C452.654 249.363 452.943 250.063 453.457 250.58C453.972 251.097 454.671 251.389 455.4 251.392H523.195C523.925 251.389 524.623 251.097 525.138 250.58C525.653 250.063 525.942 249.363 525.942 248.633V207.171C525.942 206.448 525.659 205.754 525.153 205.238C524.648 204.723 523.96 204.426 523.238 204.411Z" fill="#263238" stroke="#263238" stroke-width="1.25903" stroke-linecap="round" stroke-linejoin="round"/>
<path d="M521.411 202.421H453.627C452.897 202.421 452.198 202.71 451.681 203.225C451.164 203.74 450.872 204.439 450.869 205.169V213.479H524.168V205.169C524.166 204.439 523.874 203.74 523.357 203.225C522.84 202.71 522.14 202.421 521.411 202.421Z" fill="#606C38" stroke="#263238" stroke-width="1.25903" stroke-linecap="round" stroke-linejoin="round"/>
<path d="M514.911 205.775H521.443" stroke="#263238" stroke-width="1.25903" stroke-linecap="round" stroke-linejoin="round"/>
<path d="M514.911 207.95H521.443" stroke="#263238" stroke-width="1.25903" stroke-linecap="round" stroke-linejoin="round"/>
<path d="M521.443 210.124H514.911" stroke="#263238" stroke-width="1.25903" stroke-linecap="round" stroke-linejoin="round"/>
<path d="M487.519 213.479L485.832 206.597C485.537 205.405 484.852 204.346 483.886 203.589C482.919 202.832 481.728 202.421 480.5 202.421H453.627C452.897 202.421 452.198 202.71 451.681 203.225C451.164 203.74 450.872 204.439 450.869 205.169V246.696C450.869 247.428 451.16 248.13 451.677 248.647C452.194 249.164 452.895 249.455 453.627 249.455H521.411C522.142 249.455 522.844 249.164 523.361 248.647C523.878 248.13 524.168 247.428 524.168 246.696V213.479H487.519Z" fill="#999999" stroke="#263238" stroke-width="1.25903" stroke-linecap="round" stroke-linejoin="round"/>
<path d="M267.275 330.335H295.522C296.16 330.335 296.668 330.064 296.668 329.729V300.407C296.668 300.071 296.16 299.801 295.522 299.801H267.275C266.648 299.801 266.129 300.071 266.129 300.407V329.729C266.129 330.064 266.648 330.335 267.275 330.335Z" fill="#606C38" stroke="#263238" stroke-width="1.25903" stroke-linecap="round" stroke-linejoin="round"/>
<path d="M484.772 302.506H416.977C416.246 302.506 415.544 302.796 415.027 303.314C414.51 303.831 414.22 304.533 414.22 305.265V313.564H487.519V305.265C487.519 304.535 487.23 303.835 486.715 303.318C486.2 302.8 485.501 302.508 484.772 302.506Z" fill="#606C38" stroke="#263238" stroke-width="1.25903" stroke-linecap="round" stroke-linejoin="round"/>
<path d="M478.262 305.86H484.794" stroke="#263238" stroke-width="1.25903" stroke-linecap="round" stroke-linejoin="round"/>
<path d="M478.262 308.035H484.794" stroke="#263238" stroke-width="1.25903" stroke-linecap="round" stroke-linejoin="round"/>
<path d="M484.794 310.209H478.262" stroke="#263238" stroke-width="1.25903" stroke-linecap="round" stroke-linejoin="round"/>
<path d="M450.869 313.564L449.182 306.682C448.887 305.49 448.202 304.431 447.236 303.674C446.27 302.917 445.078 302.506 443.851 302.506H416.977C416.246 302.506 415.544 302.796 415.027 303.314C414.51 303.831 414.22 304.533 414.22 305.265V346.77C414.22 347.502 414.51 348.204 415.027 348.721C415.544 349.239 416.246 349.529 416.977 349.529H484.772C485.501 349.526 486.2 349.234 486.715 348.717C487.23 348.2 487.519 347.5 487.519 346.77V313.564H450.869Z" fill="#999999" stroke="#263238" stroke-width="1.25903" stroke-linecap="round" stroke-linejoin="round"/>
<path d="M534.712 109.855H539.817" stroke="#263238" stroke-width="1.25903" stroke-linecap="round" stroke-linejoin="round"/>
<path d="M514.911 109.855H528.732" stroke="#263238" stroke-width="1.25903" stroke-linecap="round" stroke-linejoin="round"/>
<path d="M366.237 109.855H502.843" stroke="#263238" stroke-width="1.25903" stroke-linecap="round" stroke-linejoin="round"/>
<path d="M350.805 109.855H358.969" stroke="#263238" stroke-width="1.25903" stroke-linecap="round" stroke-linejoin="round"/>
<path d="M427.921 275.694C428.008 274.612 428.062 273.53 428.062 272.448C428.062 271.366 428.008 270.284 427.921 269.202L417.864 267.903C417.335 264.081 416.138 260.382 414.328 256.975L421.757 249.942C420.602 248.076 419.308 246.3 417.886 244.629L408.975 249.488C406.297 246.712 403.158 244.424 399.696 242.725L401.567 232.749C399.539 231.913 397.449 231.236 395.316 230.726L390.99 239.901C387.196 239.223 383.311 239.223 379.517 239.901L375.191 230.726C373.058 231.236 370.968 231.913 368.94 232.749L370.811 242.725C367.35 244.424 364.21 246.712 361.532 249.488L352.546 244.608C351.111 246.282 349.81 248.065 348.653 249.942L356.028 256.91C354.21 260.315 353.009 264.015 352.481 267.838L342.424 269.137C342.337 270.219 342.283 271.301 342.283 272.383C342.283 273.465 342.337 274.547 342.424 275.629L352.481 276.938C353.01 280.758 354.211 284.454 356.028 287.855L348.653 294.834C349.8 296.702 351.091 298.478 352.513 300.147L361.424 295.278C364.099 298.057 367.239 300.346 370.703 302.04L368.832 312.016C370.86 312.856 372.949 313.536 375.083 314.05L379.408 304.864C383.203 305.542 387.088 305.542 390.882 304.864L395.208 314.05C397.341 313.536 399.431 312.856 401.459 312.016L399.588 302.04C403.052 300.346 406.192 298.057 408.866 295.278L417.777 300.147C419.2 298.476 420.494 296.7 421.649 294.834L414.274 287.855C416.095 284.472 417.31 280.795 417.864 276.992L427.921 275.694ZM385.172 247.886C388.928 247.893 392.632 248.765 395.997 250.435C399.361 252.105 402.296 254.528 404.573 257.516L388.806 264.798C387.671 264.257 386.43 263.976 385.172 263.976C383.915 263.976 382.674 264.257 381.539 264.798L365.772 257.516C368.05 254.529 370.985 252.107 374.349 250.437C377.714 248.767 381.417 247.894 385.172 247.886ZM360.667 272.404C360.666 269.24 361.28 266.105 362.473 263.175L376.737 273.237C376.857 274.448 377.235 275.619 377.847 276.67C378.459 277.721 379.291 278.628 380.284 279.329L381.863 296.641C375.999 295.846 370.622 292.953 366.725 288.498C362.828 284.042 360.676 278.325 360.667 272.404ZM388.482 296.674L390.06 279.362C391.056 278.663 391.889 277.756 392.501 276.705C393.113 275.653 393.491 274.481 393.608 273.27L407.872 263.207C409.288 266.67 409.892 270.412 409.639 274.144C409.385 277.877 408.279 281.502 406.407 284.741C404.535 287.98 401.945 290.746 398.838 292.828C395.731 294.91 392.188 296.251 388.482 296.749V296.674Z" fill="#263238" stroke="#263238" stroke-width="1.25903" stroke-linecap="round" stroke-linejoin="round"/>
<path d="M388.741 272.404C388.743 273.111 388.536 273.802 388.145 274.391C387.754 274.98 387.197 275.439 386.546 275.711C385.894 275.983 385.176 276.055 384.483 275.918C383.79 275.782 383.153 275.443 382.653 274.944C382.153 274.445 381.812 273.809 381.673 273.116C381.534 272.423 381.605 271.704 381.874 271.051C382.144 270.398 382.601 269.84 383.189 269.447C383.776 269.054 384.466 268.845 385.172 268.845C386.117 268.845 387.023 269.219 387.692 269.887C388.361 270.554 388.738 271.459 388.741 272.404Z" fill="white" stroke="#263238" stroke-width="1.25903" stroke-linecap="round" stroke-linejoin="round"/>
<path d="M427.781 201.717C427.846 200.938 427.878 200.159 427.878 199.358C427.878 198.558 427.878 197.79 427.781 197.011L420.589 196.08C420.212 193.347 419.356 190.703 418.059 188.268L423.336 183.28C422.511 181.946 421.585 180.676 420.568 179.482L414.187 182.966C412.275 180.977 410.027 179.339 407.547 178.13L408.888 170.988C407.448 170.399 405.966 169.918 404.454 169.549L401.34 176.106C398.626 175.616 395.846 175.616 393.132 176.106L390.028 169.549C388.495 169.903 386.991 170.373 385.529 170.956L386.87 178.097C384.394 179.307 382.149 180.944 380.241 182.934L373.871 179.45C372.85 180.641 371.925 181.911 371.103 183.248L376.337 188.268C375.045 190.705 374.189 193.348 373.807 196.08L366.615 197.011C366.561 197.79 366.518 198.569 366.518 199.358C366.518 200.148 366.518 200.938 366.615 201.717L373.807 202.648C374.189 205.379 375.045 208.023 376.337 210.46L371.071 215.448C371.895 216.779 372.821 218.045 373.839 219.235L380.209 215.762C382.123 217.745 384.366 219.381 386.838 220.598L385.497 227.729C386.948 228.33 388.445 228.815 389.974 229.178L393.078 222.621C395.793 223.097 398.57 223.097 401.286 222.621L404.4 229.178C405.925 228.813 407.418 228.328 408.866 227.729L407.526 220.598C410.001 219.381 412.247 217.745 414.166 215.762L420.535 219.235C421.55 218.043 422.475 216.777 423.304 215.448L418.026 210.46C419.323 208.025 420.18 205.381 420.557 202.648L427.781 201.717ZM397.219 181.83C399.901 181.831 402.546 182.449 404.95 183.637C407.354 184.825 409.452 186.55 411.083 188.679L399.815 193.884C399.004 193.499 398.117 193.299 397.219 193.299C396.322 193.299 395.435 193.499 394.624 193.884L383.345 188.679C384.977 186.549 387.078 184.823 389.484 183.636C391.89 182.448 394.537 181.83 397.219 181.83ZM379.69 199.358C379.689 197.095 380.13 194.853 380.987 192.758L391.185 199.954C391.272 200.816 391.544 201.648 391.983 202.395C392.422 203.142 393.016 203.786 393.726 204.282L394.808 216.681C390.624 216.102 386.79 214.03 384.012 210.847C381.234 207.664 379.699 203.584 379.69 199.358ZM399.577 216.67L400.713 204.271C401.42 203.772 402.012 203.128 402.45 202.381C402.889 201.635 403.163 200.804 403.254 199.943L413.441 192.747C414.451 195.222 414.881 197.895 414.698 200.561C414.515 203.228 413.724 205.817 412.385 208.13C411.046 210.442 409.196 212.418 406.976 213.904C404.756 215.39 402.225 216.348 399.577 216.703V216.67Z" fill="#757575" stroke="#263238" stroke-width="1.25903" stroke-linecap="round" stroke-linejoin="round"/>
<path d="M397.22 201.912C398.629 201.912 399.772 200.769 399.772 199.358C399.772 197.948 398.629 196.805 397.22 196.805C395.81 196.805 394.667 197.948 394.667 199.358C394.667 200.769 395.81 201.912 397.22 201.912Z" fill="white" stroke="#263238" stroke-width="1.25903" stroke-linecap="round" stroke-linejoin="round"/>
<path d="M349.377 304.291C349.377 303.772 349.453 303.209 349.453 302.733C349.453 302.257 349.453 301.651 349.377 301.164L344.586 300.536C344.337 298.715 343.766 296.953 342.899 295.332L346.414 292.01C345.867 291.12 345.252 290.274 344.576 289.478L340.326 291.794C339.05 290.464 337.553 289.366 335.902 288.548L336.789 283.798C335.826 283.394 334.831 283.068 333.815 282.824L331.739 287.152C330.836 286.986 329.921 286.903 329.003 286.903C328.085 286.904 327.17 286.987 326.267 287.152L324.201 282.824C323.183 283.07 322.185 283.396 321.217 283.798L322.114 288.548C320.462 289.363 318.965 290.462 317.691 291.794L313.441 289.478C312.761 290.271 312.146 291.118 311.603 292.01L315.117 295.332C314.247 296.952 313.672 298.714 313.42 300.536L308.629 301.164C308.629 301.683 308.564 302.246 308.564 302.733C308.564 303.22 308.564 303.815 308.629 304.291L313.42 304.918C313.672 306.74 314.247 308.503 315.117 310.123L311.592 313.445C312.143 314.334 312.761 315.181 313.441 315.976L317.691 313.661C318.962 314.996 320.459 316.096 322.114 316.907L321.217 321.657C322.185 322.059 323.183 322.385 324.201 322.631L326.267 318.249C327.17 318.413 328.085 318.497 329.003 318.498C329.921 318.498 330.836 318.414 331.739 318.249L333.815 322.631C334.831 322.386 335.826 322.061 336.789 321.657L335.902 316.907C337.556 316.093 339.053 314.994 340.326 313.661L344.576 315.976C345.252 315.181 345.867 314.334 346.414 313.445L342.899 310.123C343.766 308.502 344.337 306.74 344.586 304.918L349.377 304.291ZM329.003 291.058C330.791 291.057 332.556 291.469 334.159 292.26C335.763 293.052 337.162 294.203 338.249 295.624L330.733 299.097C330.193 298.839 329.602 298.706 329.003 298.708C328.405 298.708 327.814 298.841 327.273 299.097L319.757 295.624C320.845 294.205 322.245 293.055 323.848 292.264C325.452 291.472 327.215 291.06 329.003 291.058ZM317.324 302.754C317.324 301.244 317.618 299.749 318.189 298.351L324.98 303.144C325.039 303.722 325.221 304.281 325.514 304.783C325.806 305.285 326.203 305.719 326.678 306.055L327.435 314.321C324.633 313.941 322.064 312.557 320.205 310.426C318.345 308.295 317.322 305.562 317.324 302.733V302.754ZM330.582 314.321L331.339 306.055C331.812 305.718 332.207 305.285 332.498 304.782C332.789 304.28 332.969 303.722 333.026 303.144L339.828 298.351C340.497 300.001 340.78 301.782 340.656 303.558C340.532 305.335 340.003 307.059 339.111 308.6C338.219 310.141 336.987 311.457 335.509 312.449C334.03 313.44 332.345 314.081 330.582 314.321Z" fill="white" stroke="#263238" stroke-width="1.25903" stroke-linecap="round" stroke-linejoin="round"/>
<path d="M330.701 302.733C330.701 303.069 330.601 303.397 330.415 303.677C330.228 303.956 329.963 304.174 329.653 304.302C329.343 304.431 329.001 304.464 328.672 304.399C328.342 304.333 328.04 304.172 327.802 303.934C327.565 303.696 327.403 303.394 327.338 303.064C327.272 302.735 327.306 302.393 327.434 302.083C327.563 301.772 327.781 301.507 328.06 301.32C328.339 301.134 328.667 301.034 329.003 301.034C329.453 301.034 329.885 301.213 330.204 301.532C330.522 301.85 330.701 302.282 330.701 302.733V302.733Z" stroke="#263238" stroke-width="1.25903" stroke-linecap="round" stroke-linejoin="round"/>
<path d="M200.973 312.438L251.205 308.283L225.013 412.48L185.378 474.695L169.395 466.342C169.395 466.342 188.017 420.508 201.632 403.705C201.632 403.705 204.531 370.434 207.169 353.013C207.169 353.013 202.227 328.679 200.973 312.438Z" fill="#858585"/>
<path d="M235.87 309.549L214.123 311.345C214.123 311.345 212.393 333.884 229.068 351.033L236.833 365.435L244.565 334.663L235.87 309.549Z" fill="#263238" stroke="#263238" stroke-width="1.25903" stroke-linecap="round" stroke-linejoin="round"/>
<path d="M200.973 312.438L251.205 308.283L225.013 412.48L185.378 474.695L169.395 466.342C169.395 466.342 188.017 420.508 201.632 403.705C201.632 403.705 204.531 370.434 207.169 353.013C207.169 353.013 202.227 328.679 200.973 312.438Z" stroke="#263238" stroke-width="1.25903" stroke-linecap="round" stroke-linejoin="round"/>
<path d="M201.146 411.214C200.206 411.729 199.343 412.373 198.583 413.129" stroke="#263238" stroke-width="1.25903" stroke-linecap="round" stroke-linejoin="round"/>
<path d="M205.039 403.251C205.039 403.251 214.837 401.541 216.859 408.358C218.449 413.692 211.311 408.671 204.26 410.11" stroke="#263238" stroke-width="1.25903" stroke-linecap="round" stroke-linejoin="round"/>
<path d="M216.87 312.363L257.012 306.531L283.205 388.914L305.114 463.096L287.098 470.129C287.098 470.129 265.88 424.231 260.992 399.226C260.992 399.226 241.407 365.857 234.454 349.832C228.936 345.276 224.497 339.553 221.456 333.073C218.415 326.594 216.849 319.521 216.87 312.363Z" fill="#999999" stroke="#263238" stroke-width="1.25903" stroke-linecap="round" stroke-linejoin="round"/>
<path d="M253.952 349.172C255.705 349.371 257.38 350.011 258.818 351.033" stroke="#263238" stroke-width="1.25903" stroke-linecap="round" stroke-linejoin="round"/>
<path d="M250.199 339.672C247.301 342.128 235.676 343.102 238.401 347.852C240.023 350.676 244.543 349.486 249.377 349.129" stroke="#263238" stroke-width="1.25903" stroke-linecap="round" stroke-linejoin="round"/>
<path d="M263.674 397.462C263.674 397.462 269.6 393.707 274.369 397.462" stroke="#263238" stroke-width="1.25903" stroke-linecap="round" stroke-linejoin="round"/>
<path d="M190.515 499.256L155.974 479.672L156.926 477.411L158.3 477.822C158.3 477.822 160.538 474.576 166.097 467.781C167.643 462.953 169.954 458.405 172.942 454.31C172.942 454.31 194.863 461.267 191.326 469.534L186.644 477.703C188.786 481.328 191.133 484.829 193.673 488.188C193.673 488.188 198.821 491.498 200.162 491.78C200.773 491.871 201.357 492.092 201.876 492.428C202.395 492.764 202.835 493.207 203.169 493.728C203.502 494.249 203.719 494.835 203.807 495.447C203.894 496.059 203.85 496.683 203.676 497.276L205.006 497.558L204.163 499.916L190.515 499.256Z" fill="#606C38" stroke="#263238" stroke-width="1.25903" stroke-linecap="round" stroke-linejoin="round"/>
<path d="M180.599 457.372C178.103 456.199 175.539 455.176 172.92 454.31C169.932 458.405 167.621 462.953 166.075 467.781C175.321 473.516 180.599 457.372 180.599 457.372Z" fill="#606C38"/>
<path opacity="0.5" d="M180.599 457.372C178.103 456.199 175.539 455.176 172.92 454.31C169.932 458.405 167.621 462.953 166.075 467.781C175.321 473.516 180.599 457.372 180.599 457.372Z" fill="black"/>
<path d="M180.599 457.372C178.103 456.199 175.539 455.176 172.92 454.31C169.932 458.405 167.621 462.953 166.075 467.781C175.321 473.516 180.599 457.372 180.599 457.372Z" stroke="#263238" stroke-width="1.25903" stroke-linecap="round" stroke-linejoin="round"/>
<path d="M187.855 479.553C187.297 480.37 186.53 481.023 185.634 481.441C184.738 481.86 183.746 482.03 182.761 481.934" stroke="#263238" stroke-width="1.25903" stroke-linecap="round" stroke-linejoin="round"/>
<path d="M189.812 482.496C189.812 482.496 189.304 484.866 185.595 485.905" stroke="#263238" stroke-width="1.25903" stroke-linecap="round" stroke-linejoin="round"/>
<path d="M191.791 485.461C191.791 485.461 192.451 487.776 188.461 489.919" stroke="#263238" stroke-width="1.25903" stroke-linecap="round" stroke-linejoin="round"/>
<path d="M194.484 496.422L201.189 496.908" stroke="#263238" stroke-width="1.25903" stroke-linecap="round" stroke-linejoin="round"/>
<path d="M164.648 481.436L190.667 496.14L193.013 493.154" stroke="#263238" stroke-width="1.25903" stroke-linecap="round" stroke-linejoin="round"/>
<path d="M160.679 479.196L162.474 480.213" stroke="#263238" stroke-width="1.25903" stroke-linecap="round" stroke-linejoin="round"/>
<path d="M284.243 467.543C284.243 467.543 303.708 455.338 307.775 463.356L310.954 472.217C310.954 472.217 326.613 474.598 331.382 473.57C331.974 473.41 332.594 473.379 333.199 473.477C333.804 473.576 334.382 473.802 334.893 474.14C335.404 474.479 335.838 474.923 336.165 475.442C336.492 475.961 336.705 476.544 336.789 477.151L338.119 476.87L338.314 479.369L292.537 496.908L291.456 494.744L292.656 493.965C292.656 493.965 291.672 490.178 290.061 481.512C287.384 477.198 285.419 472.482 284.243 467.543Z" fill="#606C38" stroke="#263238" stroke-width="1.25903" stroke-linecap="round" stroke-linejoin="round"/>
<path d="M291.542 463.68C289.034 464.82 286.596 466.11 284.243 467.543C285.425 472.475 287.393 477.184 290.072 481.49C300.41 478.168 291.542 463.68 291.542 463.68Z" fill="#606C38"/>
<path opacity="0.5" d="M291.542 463.68C289.034 464.82 286.596 466.11 284.243 467.543C285.425 472.475 287.393 477.184 290.072 481.49C300.41 478.168 291.542 463.68 291.542 463.68Z" fill="black"/>
<path d="M291.542 463.68C289.034 464.82 286.596 466.11 284.243 467.543C285.425 472.475 287.393 477.184 290.072 481.49C300.41 478.168 291.542 463.68 291.542 463.68Z" stroke="#263238" stroke-width="1.25903" stroke-linecap="round" stroke-linejoin="round"/>
<path d="M332.82 478.763L334.962 477.941" stroke="#263238" stroke-width="1.25903" stroke-linecap="round" stroke-linejoin="round"/>
<path d="M303.535 489.973L330.106 479.802" stroke="#263238" stroke-width="1.25903" stroke-linecap="round" stroke-linejoin="round"/>
<path d="M294.538 493.414L298.334 491.964" stroke="#263238" stroke-width="1.25903" stroke-linecap="round" stroke-linejoin="round"/>
<path d="M313.128 472.52C313.386 473.473 313.384 474.478 313.122 475.43C312.859 476.381 312.346 477.245 311.635 477.93" stroke="#263238" stroke-width="1.25903" stroke-linecap="round" stroke-linejoin="round"/>
<path d="M316.631 472.931C316.631 472.931 318.102 474.857 316.502 478.341" stroke="#263238" stroke-width="1.25903" stroke-linecap="round" stroke-linejoin="round"/>
<path d="M320.179 473.343C320.179 473.343 322.341 474.338 321.411 478.753" stroke="#263238" stroke-width="1.25903" stroke-linecap="round" stroke-linejoin="round"/>
<path d="M188.926 200.722C184.978 205.335 182.388 210.953 181.442 216.952C179.744 227.166 171.709 248.947 174.294 250.57C176.878 252.193 201.189 270.046 201.189 270.046L211.852 260.167L196.712 240.864L204.217 208.058L188.926 200.722Z" fill="#606C38"/>
<path opacity="0.3" d="M188.926 200.722C184.978 205.335 182.388 210.953 181.442 216.952C179.744 227.166 171.709 248.947 174.294 250.57C176.878 252.193 201.189 270.046 201.189 270.046L211.852 260.167L196.712 240.864L204.217 208.058L188.926 200.722Z" fill="black"/>
<path d="M188.926 200.722C184.978 205.335 182.388 210.953 181.442 216.952C179.744 227.166 171.709 248.947 174.294 250.57C176.878 252.193 201.189 270.046 201.189 270.046L211.852 260.167L196.712 240.864L204.217 208.058L188.926 200.722Z" stroke="#263238" stroke-width="1.25903" stroke-linecap="round" stroke-linejoin="round"/>
<path d="M178.663 246.274C180.293 244.721 182.313 243.639 184.508 243.141C186.703 242.644 188.992 242.751 191.132 243.45" stroke="#263238" stroke-width="1.25903" stroke-linecap="round" stroke-linejoin="round"/>
<path d="M156.396 294.899C159.328 297.652 162.938 299.577 166.857 300.477C170.776 301.377 174.864 301.22 178.702 300.021C182.54 298.823 185.992 296.627 188.704 293.656C191.416 290.686 193.291 287.049 194.138 283.116L369.221 222.665C372.312 225.238 376.03 226.945 379.996 227.61C383.962 228.275 388.033 227.874 391.793 226.449C395.554 225.024 398.868 222.626 401.399 219.499C403.929 216.372 405.584 212.629 406.195 208.653V205.926L389.314 211.758L380.49 204.087L382.382 194.349L399.263 188.528V185.801C396.332 183.045 392.721 181.118 388.8 180.216C384.88 179.315 380.791 179.471 376.95 180.67C373.11 181.868 369.657 184.066 366.944 187.038C364.232 190.01 362.356 193.649 361.511 197.584L186.427 258.035C183.337 255.462 179.619 253.755 175.653 253.09C171.687 252.425 167.616 252.826 163.856 254.251C160.095 255.676 156.781 258.075 154.25 261.201C151.72 264.328 150.064 268.071 149.453 272.047V274.828L166.335 268.996L175.159 276.657L173.277 286.395L156.396 292.14V294.899Z" fill="#CBF2D6" stroke="#263238" stroke-width="1.25903" stroke-linecap="round" stroke-linejoin="round"/>
<path d="M380.046 203.697L382.382 191.644L399.263 185.812C396.332 183.056 392.721 181.129 388.8 180.227C384.88 179.325 380.791 179.482 376.95 180.68C373.11 181.879 369.657 184.077 366.944 187.049C364.232 190.02 362.356 193.66 361.511 197.595L186.427 258.046C183.337 255.473 179.619 253.766 175.653 253.101C171.687 252.436 167.616 252.837 163.856 254.262C160.095 255.687 156.781 258.085 154.25 261.212C151.72 264.339 150.064 268.082 149.453 272.058L166.335 266.237L175.613 274.287L173.277 286.351L156.396 292.14C159.328 294.893 162.938 296.818 166.857 297.718C170.776 298.618 174.864 298.461 178.702 297.262C182.54 296.064 185.992 293.868 188.704 290.897C191.416 287.927 193.291 284.29 194.138 280.357L369.221 219.906C372.316 222.48 376.038 224.186 380.008 224.848C383.977 225.51 388.051 225.105 391.813 223.674C395.575 222.243 398.889 219.837 401.416 216.704C403.943 213.57 405.592 209.821 406.195 205.84L389.314 211.758L380.046 203.697Z" fill="#858585" stroke="#263238" stroke-width="1.25903" stroke-linecap="round" stroke-linejoin="round"/>
<path d="M247.647 166.022C247.647 166.022 244.262 159.292 243.765 156.847C243.408 155.116 244.111 151.502 243.765 149.77C242.932 145.713 237.276 134.536 237.276 134.536C237.045 134.055 236.695 133.642 236.26 133.335L232.886 137.414H223.856L210.078 155.635L216.859 172.038L214.869 174.397C216.091 175.598 216.859 176.29 216.859 176.29L214.869 188.192L234.335 190.161L234.843 182.587H240.758C241.555 182.585 242.318 182.267 242.881 181.703C243.444 181.14 243.762 180.376 243.765 179.58V169.268L246.479 168.5C246.73 168.431 246.962 168.308 247.161 168.14C247.36 167.973 247.52 167.764 247.631 167.529C247.742 167.294 247.801 167.037 247.804 166.777C247.806 166.517 247.753 166.26 247.647 166.022Z" fill="white" stroke="#263238" stroke-width="1.25903" stroke-linecap="round" stroke-linejoin="round"/>
<path d="M216.859 176.258L220.168 169.766C220.168 169.766 213.031 167.223 214.512 160.839C215.994 154.455 221.952 159.876 221.952 159.876H223.856L225.543 152.497C225.543 152.497 229.685 148.05 229.393 146.492C229.169 145.36 228.873 144.243 228.506 143.149C228.506 143.149 241.894 141.104 240.153 133.227C238.412 125.35 220.449 128.336 220.449 128.336C220.449 128.336 215.15 118.879 201.535 137.263C201.535 137.263 191.608 142.932 198.864 154.834C203.913 162.722 209.962 169.923 216.859 176.258Z" fill="#263238" stroke="#263238" stroke-width="1.25903" stroke-linecap="round" stroke-linejoin="round"/>
<path d="M223.856 145.269C223.856 145.269 213.452 166.044 204.595 167.58L201.708 163.663C201.708 163.663 202.216 160.342 207.829 159.876C207.829 159.876 213.128 157.539 219.4 146.492L223.856 145.269Z" fill="#858585" stroke="#263238" stroke-width="1.25903" stroke-linecap="round" stroke-linejoin="round"/>
<path d="M234.302 167.58C235.029 168.386 235.939 169.003 236.956 169.38C237.973 169.757 239.066 169.882 240.142 169.744" stroke="#263238" stroke-width="1.25903" stroke-linecap="round" stroke-linejoin="round"/>
<path d="M240.142 154.834C240.142 155.754 239.785 156.511 239.353 156.511C238.92 156.511 238.574 155.754 238.574 154.834C238.574 153.914 238.931 153.157 239.353 153.157C239.774 153.157 240.142 153.904 240.142 154.834Z" fill="#263238"/>
<path d="M240.142 148.472C239.063 148.236 237.936 148.391 236.96 148.908C235.984 149.425 235.222 150.271 234.811 151.296" stroke="#263238" stroke-width="1.25903" stroke-linecap="round" stroke-linejoin="round"/>
<path d="M201.503 160.233C201.32 160.476 201.08 160.669 200.803 160.793C200.526 160.918 200.222 160.97 199.92 160.945C199.618 160.92 199.326 160.819 199.074 160.651C198.821 160.483 198.615 160.254 198.475 159.985C195.036 153.395 187.985 135.694 206.899 126.951C229.382 116.564 241.429 130.716 241.429 130.716L247.409 131.355L248.999 134.136L204.012 156.89L201.503 160.233Z" fill="#606C38" stroke="#263238" stroke-width="1.25903" stroke-linecap="round" stroke-linejoin="round"/>
<path d="M206.726 191.417C207.674 189.522 209.116 187.918 210.899 186.775C212.683 185.632 214.742 184.993 216.859 184.925C224.332 184.578 235.805 185.606 238.747 192.758C238.747 192.758 254.871 197.422 258.591 208.88C262.311 220.338 257.012 273.129 257.012 273.129C257.012 273.129 261.771 294.25 258.818 308.327C258.818 308.327 242.489 313.931 198.258 314.819C198.258 314.819 195.014 287.477 196.863 277.771C196.863 277.771 183.962 209.508 188.947 200.646C193.933 191.784 206.726 191.417 206.726 191.417Z" fill="#263238" stroke="#263238" stroke-width="1.25903" stroke-miterlimit="10"/>
<path d="M215.139 242.714C201.935 242.411 195.079 245.668 191.824 248.124C192.473 252.452 193.132 256.585 193.76 260.34C195.793 258.652 201.146 256.78 214.804 256.51C229.417 256.256 243.981 258.274 257.975 262.493C258.278 258.825 258.613 254.465 258.916 249.823C251.529 247.854 231.685 243.082 215.139 242.714Z" fill="#606C38" stroke="#263238" stroke-width="1.25903" stroke-linecap="round" stroke-linejoin="round"/>
<path d="M257.012 273.151C257.012 273.151 257.11 272.145 257.272 270.381C251.086 268.834 233.664 264.863 216.956 264.484C203.244 264.17 197.555 267.113 195.263 269.137C196.204 274.482 196.842 277.847 196.842 277.847C196.712 278.507 196.615 279.253 196.528 280.011C199.123 278.518 204.714 277.068 216.621 276.83C230.832 276.592 244.999 278.492 258.645 282.467C257.877 276.992 257.012 273.151 257.012 273.151Z" fill="#606C38" stroke="#263238" stroke-width="1.25903" stroke-linecap="round" stroke-linejoin="round"/>
<path d="M231.426 191.774C232.356 192.001 233.297 192.261 234.259 192.553" stroke="#7F7F7F" stroke-width="0.944269" stroke-linecap="round" stroke-linejoin="round"/>
<path d="M211.852 190.508C217.395 189.783 223.021 189.992 228.495 191.124" stroke="#7F7F7F" stroke-width="0.944269" stroke-linecap="round" stroke-linejoin="round"/>
<path d="M243.905 234.794C243.208 224.989 245.095 215.173 249.377 206.327C256.558 191.179 262.355 221.669 262.355 221.669C262.355 221.669 270.584 234.653 272.563 243.937C272.563 243.937 279.625 237.066 308.575 234.794L311.97 246.977C311.97 246.977 272.077 266.583 263.674 265.09C257.456 264.073 243.905 234.794 243.905 234.794Z" fill="#606C38" stroke="#263238" stroke-width="1.25903" stroke-linecap="round" stroke-linejoin="round"/>
<path d="M258.202 239.122C258.19 240.333 258.291 241.543 258.505 242.736" stroke="#263238" stroke-width="1.25903" stroke-linecap="round" stroke-linejoin="round"/>
<path d="M250.762 234.794C250.762 234.794 256.58 222.026 259.629 222.892C261.792 223.53 259.478 228.605 258.548 234.794" stroke="#263238" stroke-width="1.25903" stroke-linecap="round" stroke-linejoin="round"/>
<path d="M305.114 233.604C305.114 233.604 309.797 241.74 309.57 250.234L315.247 247.15C315.247 247.15 314.685 236.796 310.716 233.312L305.114 233.604Z" fill="#263238" stroke="#263238" stroke-width="1.25903" stroke-linecap="round" stroke-linejoin="round"/>
<path d="M309.57 235.119L318.848 233.604C319.571 232.129 320.697 230.889 322.097 230.031C323.497 229.173 325.112 228.731 326.754 228.756C329.925 228.849 333.088 228.365 336.086 227.328C336.175 227.292 336.271 227.279 336.367 227.289C336.462 227.3 336.553 227.334 336.631 227.389C336.71 227.444 336.773 227.518 336.816 227.603C336.859 227.689 336.879 227.784 336.876 227.88C336.876 229.2 335.881 231.721 329.403 232.305C329.403 232.305 335.254 235.865 336.876 234.469C337.305 234.052 337.841 233.761 338.425 233.629C339.009 233.497 339.618 233.53 340.185 233.723C340.185 233.723 340.38 238.278 337.157 238.462C337.157 238.462 336.4 241.416 333.913 241.362C333.913 241.362 332.204 243.764 330.885 243.385C329.573 243.663 328.217 243.663 326.905 243.385C324.45 242.963 321.801 242.433 321.801 242.433L313.149 245.138L309.57 235.119Z" fill="#263238" stroke="#263238" stroke-width="1.25903" stroke-linecap="round" stroke-linejoin="round"/>
<path d="M336.086 236.211C336.086 236.211 336.205 238.072 334.843 238.375C333.48 238.678 335.189 240.312 330.517 241.73" stroke="#7F7F7F" stroke-width="0.944269" stroke-linecap="round" stroke-linejoin="round"/>
<path d="M272.661 247.637C272.746 250.119 272.44 252.598 271.752 254.984" stroke="#263238" stroke-width="1.25903" stroke-linecap="round" stroke-linejoin="round"/>
<path d="M314.101 239.955C313.692 238.283 313.059 236.675 312.219 235.173" stroke="#7F7F7F" stroke-width="0.944269" stroke-linecap="round" stroke-linejoin="round"/>
<path d="M314.771 243.147C314.685 242.628 314.588 242.065 314.469 241.535" stroke="#7F7F7F" stroke-width="0.944269" stroke-linecap="round" stroke-linejoin="round"/>
</svg>
