<svg width="156" height="156" viewBox="0 0 156 156" fill="none" xmlns="http://www.w3.org/2000/svg">
<path fill-rule="evenodd" clip-rule="evenodd" d="M62.829 63.7471L72.1857 72.137L64.5499 69.836L61.711 64.7173L62.829 63.7471Z" fill="#606C38"/>
<path fill-rule="evenodd" clip-rule="evenodd" d="M93.2588 63.7471L83.9004 72.137L91.5363 69.836L94.3768 64.7173L93.2588 63.7471Z" fill="#606C38"/>
<path d="M78.6175 90.0965C79.1115 90.4134 79.2545 91.0699 78.9376 91.5639C78.6207 92.0579 77.9642 92.2009 77.4702 91.884L74.0659 89.6902C73.7961 89.518 73.632 89.2434 73.5881 88.9509L71.1896 72.6716L62.1172 64.5369C61.6817 64.1436 61.646 63.4725 62.0392 63.037C62.4325 62.6015 63.1036 62.5657 63.5407 62.9574L72.878 71.331C73.0665 71.4919 73.1997 71.7194 73.2387 71.9842L75.621 88.166L78.6175 90.0965Z" fill="#606C38"/>
<path d="M75.4959 88.1741C75.8404 88.647 75.7364 89.3084 75.2635 89.6529C74.7906 89.9974 74.1276 89.8934 73.7831 89.4205L67.8373 81.2614L61.2007 77.2996L55.3036 77.6457C54.717 77.6799 54.2149 77.233 54.1807 76.648C54.1759 76.5651 54.1807 76.4822 54.1937 76.4026H54.1921L55.4775 69.0999L54.9315 37.6139C54.9104 37.3084 55.0225 36.9947 55.263 36.7672C55.6904 36.3659 56.3631 36.387 56.7645 36.8127L73.4191 54.509H73.4175L73.4484 54.5415C73.8319 54.9835 73.7831 55.6546 73.3395 56.0365L57.5234 69.7531L56.5224 75.4471L61.4006 75.1611C61.607 75.1497 61.8182 75.1969 62.0084 75.3106L69.108 79.5519C69.2266 79.6234 69.3339 79.7192 69.42 79.8379L75.4959 88.1741ZM57.5624 66.911L71.1149 55.1574L57.0992 40.2675L57.5624 66.911Z" fill="#606C38"/>
<path d="M72.8975 72.9268C72.462 73.3184 71.7893 73.2843 71.396 72.8471C71.0028 72.4116 71.0385 71.7405 71.4756 71.3473L77.3321 66.0953C77.7693 65.7036 78.4404 65.7394 78.8336 66.1749C79.2269 66.6104 79.1911 67.2815 78.7556 67.6748L72.8975 72.9268Z" fill="#606C38"/>
<path d="M77.2249 67.8389C77.545 68.3313 77.4053 68.9878 76.9129 69.3063C76.4221 69.6248 75.764 69.485 75.4455 68.9943L72.2118 64.0023C71.9859 63.6545 71.9908 63.2255 72.1858 62.8891L77.116 54.0264C77.4004 53.5145 78.0471 53.3293 78.559 53.6136C79.0709 53.898 79.2561 54.5448 78.9718 55.0566L74.3405 63.3831L77.2249 67.8389Z" fill="#606C38"/>
<path d="M67.5903 80.0378L71.2124 71.7129L73.1591 72.5611L69.537 80.8844L67.5903 80.0378Z" fill="#606C38"/>
<path d="M60.4029 76.1491L61.2105 64.1615L63.3311 64.3029L62.5235 76.2905L60.4029 76.1491Z" fill="#606C38"/>
<path d="M57.5965 37.9161L63.31 64.0071L61.23 64.4573L55.5165 38.3646L57.5965 37.9161Z" fill="#606C38"/>
<path d="M78.6175 91.884C78.1235 92.2009 77.467 92.0562 77.1501 91.5639C76.8316 91.0699 76.9762 90.4134 77.4702 90.0965L80.4651 88.166L82.849 71.9842C82.888 71.7194 83.0212 71.4919 83.2081 71.331L92.547 62.9574C92.9825 62.5657 93.6552 62.6015 94.0485 63.037C94.4401 63.4725 94.406 64.1436 93.9689 64.5369L84.8965 72.6716L82.4996 88.9509C82.4557 89.2434 82.2916 89.518 82.0219 89.6902L78.6175 91.884Z" fill="#606C38"/>
<path d="M82.3046 89.4205C81.9601 89.8934 81.2971 89.9974 80.8243 89.6529C80.3498 89.3084 80.2458 88.647 80.5903 88.1741L86.6661 79.8379C86.7539 79.7192 86.8595 79.6234 86.9798 79.5519H86.9781L94.0794 75.3106C94.2695 75.1969 94.4808 75.1497 94.6871 75.1611L99.5654 75.4471L98.5628 69.7531L82.7483 56.0365C82.3046 55.6546 82.2559 54.9835 82.6394 54.5415L82.6686 54.509L99.3216 36.8127C99.7246 36.387 100.396 36.3659 100.823 36.7672C101.065 36.9947 101.177 37.3084 101.156 37.6139L100.61 69.0999L101.894 76.4026H101.892C101.907 76.4822 101.912 76.5651 101.907 76.648C101.873 77.233 101.369 77.6799 100.784 77.6457L94.887 77.2996L88.2505 81.2614L82.3046 89.4205ZM84.9729 55.1574L98.5254 66.911L98.9869 40.2675L84.9729 55.1574Z" fill="#606C38"/>
<path d="M84.6121 71.3473C85.0493 71.7405 85.0834 72.4116 84.6918 72.8471C84.2985 73.2843 83.6258 73.3184 83.1903 72.9268L77.3321 67.6748C76.8966 67.2815 76.8609 66.6104 77.2541 66.1749C77.6458 65.7394 78.3185 65.7036 78.7556 66.0953L84.6121 71.3473Z" fill="#606C38"/>
<path d="M80.6422 68.9943C80.3221 69.485 79.6656 69.6248 79.1732 69.3063C78.6825 68.9878 78.5427 68.3313 78.8612 67.8389L81.7472 63.3831L77.116 55.0566C76.8316 54.5448 77.0152 53.898 77.5287 53.6136C78.0406 53.3293 78.6857 53.5145 78.9717 54.0264L83.902 62.8891C84.097 63.2255 84.1002 63.6545 83.8744 64.0023L80.6422 68.9943Z" fill="#606C38"/>
<path d="M86.5508 80.8844L82.927 72.5611L84.8738 71.7129L88.4975 80.0378L86.5508 80.8844Z" fill="#606C38"/>
<path d="M93.5642 76.2905L92.7566 64.3029L94.8772 64.1615L95.6849 76.1491L93.5642 76.2905Z" fill="#606C38"/>
<path d="M100.571 38.3646L94.8561 64.4573L92.7778 64.0071L98.4913 37.9161L100.571 38.3646Z" fill="#606C38"/>
<path fill-rule="evenodd" clip-rule="evenodd" d="M78.3006 82.732C80.5382 82.732 82.3517 84.5439 82.3517 86.7782C82.3517 89.0142 80.5382 90.8261 78.3006 90.8261C76.063 90.8261 74.2479 89.0142 74.2479 86.7782C74.2479 84.5439 76.063 82.732 78.3006 82.732Z" fill="#606C38"/>
<path d="M47.5718 111.48C47.0697 111.48 46.5936 111.43 46.1418 111.331V109.192C46.2946 109.222 46.4538 109.254 46.6228 109.29C46.7886 109.324 46.9673 109.342 47.1623 109.342C47.6173 109.342 47.9423 109.202 48.1373 108.926C48.3323 108.653 48.4298 108.185 48.4298 107.522V98.1034H51.1923V107.288C51.1923 108.666 50.8901 109.708 50.2888 110.414C49.686 111.125 48.7808 111.48 47.5718 111.48Z" fill="#394023"/>
<path d="M61.7774 108.282L61.2769 106.371H57.9684L57.4549 108.282H54.4324L57.7539 98.0579H61.4264L64.7869 108.282H61.7774ZM60.7049 104.116L60.2694 102.445C60.1654 102.078 60.0386 101.599 59.8924 101.009C59.7494 100.416 59.6535 99.9933 59.6064 99.7414C59.5625 99.9754 59.4796 100.365 59.3594 100.911C59.2375 101.454 58.9645 102.522 58.5404 104.116H60.7049Z" fill="#394023"/>
<path d="M70.7342 108.282H68.0237V98.1034H74.0427V100.307H70.7342V102.25H73.7827V104.46H70.7342V108.282Z" fill="#394023"/>
<path d="M80.5604 108.282H77.8499V98.1034H83.8689V100.307H80.5604V102.25H83.6089V104.46H80.5604V108.282Z" fill="#394023"/>
<path d="M93.9226 108.282L93.4221 106.371H90.1136L89.6001 108.282H86.5776L89.8991 98.0579H93.5716L96.9321 108.282H93.9226ZM92.8501 104.116L92.4146 102.445C92.3106 102.078 92.1839 101.599 92.0376 101.009C91.8946 100.416 91.7988 99.9933 91.7516 99.7414C91.7078 99.9754 91.6249 100.365 91.5046 100.911C91.3828 101.454 91.1098 102.522 90.6856 104.116H92.8501Z" fill="#394023"/>
<path d="M102.919 104.577V108.282H100.169V98.1034H103.504C106.273 98.1034 107.657 99.1076 107.657 101.113C107.657 102.293 107.08 103.204 105.928 103.849L108.899 108.282H105.779L103.621 104.577H102.919ZM102.919 102.51H103.439C104.396 102.51 104.875 102.086 104.875 101.236C104.875 100.534 104.404 100.183 103.465 100.183H102.919V102.51Z" fill="#394023"/>
<path d="M59.8582 117.931H58.6752V115.513H56.4522V117.931H55.2692V112.328H56.4522V114.525H58.6752V112.328H59.8582V117.931Z" fill="#303030"/>
<path d="M67.9831 112.328V115.955C67.9831 116.367 67.8889 116.728 67.7036 117.04C67.5216 117.352 67.2551 117.593 66.9041 117.762C66.5531 117.927 66.1388 118.009 65.6626 118.009C64.9428 118.009 64.3838 117.825 63.9856 117.456C63.5859 117.084 63.3876 116.577 63.3876 115.935V112.328H64.5706V115.76C64.5706 116.189 64.6568 116.505 64.8306 116.709C65.0029 116.908 65.2921 117.008 65.6951 117.008C66.0803 117.008 66.3598 116.908 66.5336 116.709C66.7108 116.505 66.8001 116.185 66.8001 115.747V112.328H67.9831Z" fill="#303030"/>
<path d="M74.8197 116.377C74.8197 116.881 74.6345 117.279 74.2672 117.573C73.9032 117.864 73.3978 118.009 72.7527 118.009C72.1547 118.009 71.6233 117.896 71.1602 117.671V116.566C71.5405 116.735 71.8622 116.855 72.1222 116.923C72.3855 116.993 72.626 117.027 72.8437 117.027C73.1037 117.027 73.302 116.978 73.4417 116.878C73.5798 116.778 73.6497 116.629 73.6497 116.429C73.6497 116.322 73.6188 116.224 73.5587 116.137C73.497 116.05 73.406 115.968 73.2857 115.89C73.1687 115.812 72.9282 115.686 72.5642 115.513C72.2213 115.353 71.963 115.199 71.7907 115.051C71.6217 114.9 71.4852 114.726 71.3812 114.531C71.2772 114.333 71.2252 114.102 71.2252 113.842C71.2252 113.345 71.3942 112.955 71.7322 112.672C72.0702 112.386 72.5333 112.243 73.1232 112.243C73.4173 112.243 73.6968 112.279 73.9617 112.347C74.225 112.417 74.5012 112.514 74.7872 112.64L74.4037 113.563C74.1047 113.442 73.8577 113.358 73.6627 113.309C73.4677 113.257 73.276 113.231 73.0907 113.231C72.8648 113.231 72.691 113.286 72.5707 113.394C72.4488 113.498 72.3887 113.634 72.3887 113.803C72.3887 113.907 72.4115 113.998 72.4602 114.076C72.5122 114.154 72.5902 114.23 72.6942 114.304C72.8015 114.378 73.0533 114.508 73.4482 114.694C73.9715 114.945 74.3322 115.197 74.5272 115.448C74.7222 115.699 74.8197 116.01 74.8197 116.377Z" fill="#303030"/>
<path d="M81.2947 116.377C81.2947 116.881 81.1094 117.279 80.7422 117.573C80.3782 117.864 79.8728 118.009 79.2277 118.009C78.6297 118.009 78.0983 117.896 77.6352 117.671V116.566C78.0154 116.735 78.3372 116.855 78.5972 116.923C78.8604 116.993 79.1009 117.027 79.3187 117.027C79.5787 117.027 79.7769 116.978 79.9167 116.878C80.0548 116.778 80.1247 116.629 80.1247 116.429C80.1247 116.322 80.0938 116.224 80.0337 116.137C79.9719 116.05 79.8809 115.968 79.7607 115.89C79.6437 115.812 79.4032 115.686 79.0392 115.513C78.6963 115.353 78.4379 115.199 78.2657 115.051C78.0967 114.9 77.9602 114.726 77.8562 114.531C77.7522 114.333 77.7002 114.102 77.7002 113.842C77.7002 113.345 77.8692 112.955 78.2072 112.672C78.5452 112.386 79.0083 112.243 79.5982 112.243C79.8923 112.243 80.1718 112.279 80.4367 112.347C80.6999 112.417 80.9762 112.514 81.2622 112.64L80.8787 113.563C80.5797 113.442 80.3327 113.358 80.1377 113.309C79.9427 113.257 79.7509 113.231 79.5657 113.231C79.3398 113.231 79.1659 113.286 79.0457 113.394C78.9238 113.498 78.8637 113.634 78.8637 113.803C78.8637 113.907 78.8864 113.998 78.9352 114.076C78.9872 114.154 79.0652 114.23 79.1692 114.304C79.2764 114.378 79.5283 114.508 79.9232 114.694C80.4464 114.945 80.8072 115.197 81.0022 115.448C81.1972 115.699 81.2947 116.01 81.2947 116.377Z" fill="#303030"/>
<path d="M87.6852 117.931H84.4612V112.328H87.6852V113.296H85.6442V114.531H87.5422V115.506H85.6442V116.949H87.6852V117.931Z" fill="#303030"/>
<path d="M91.009 117.931V112.328H92.192V117.931H91.009Z" fill="#303030"/>
<path d="M100.732 117.931H99.2174L96.7799 113.693H96.7474C96.7945 114.438 96.8189 114.971 96.8189 115.292V117.931H95.7594V112.328H97.2544L99.6919 116.527H99.7179C99.6789 115.795 99.6594 115.279 99.6594 114.98V112.328H100.732V117.931Z" fill="#303030"/>
</svg>
